<svg xmlns="http://www.w3.org/2000/svg" viewBox="0 0 20.11 32.29"><defs><style>.cls-1{fill:#d34994;}</style></defs><title>chemie</title><g id="Ebene_2" data-name="Ebene 2"><g id="Ebene_1-2" data-name="Ebene 1"><path id="Pfad_52" data-name="Pfad 52" class="cls-1" d="M19.91,27.1,14.32,10.27V3.58A1.8,1.8,0,0,0,14.11,0H6a1.8,1.8,0,0,0-.21,3.58v6.69L.2,27.1a4,4,0,0,0,2.51,5,4,4,0,0,0,1.24.2H16.16a4,4,0,0,0,3.95-3.95,4,4,0,0,0-.2-1.24ZM5.62,1.8A.38.38,0,0,1,6,1.42h8.11a.38.38,0,1,1,0,.76H6A.38.38,0,0,1,5.62,1.8Zm12.6,28a2.54,2.54,0,0,1-2.06,1.05H4a2.54,2.54,0,0,1-2.53-2.54,2.44,2.44,0,0,1,.13-.8L7.17,10.61a.85.85,0,0,0,0-.23V3.6h5.71v6.78a.59.59,0,0,0,0,.23l5.62,16.93a2.48,2.48,0,0,1-.36,2.28Z"/><path id="Pfad_53" data-name="Pfad 53" class="cls-1" d="M14.88,18.68a.71.71,0,0,0-.25-.34A4.74,4.74,0,0,0,12,17.4a4.52,4.52,0,0,0-2.53.9,2.69,2.69,0,0,1-3.19.14.71.71,0,0,0-1,.19,1,1,0,0,0-.08.18l-3,9a1.82,1.82,0,0,0,1.16,2.31,1.88,1.88,0,0,0,.57.09H16.16A1.82,1.82,0,0,0,18,28.33a1.84,1.84,0,0,0-.09-.57Zm1.61,9.9h0a.39.39,0,0,1-.33.17H4a.42.42,0,0,1-.34-.17.38.38,0,0,1,0-.37L6.27,20a4.11,4.11,0,0,0,4.06-.63,3,3,0,0,1,1.73-.59,3.08,3.08,0,0,1,1.55.54l2.94,8.86a.36.36,0,0,1-.06.37Z"/></g></g></svg>