<svg xmlns="http://www.w3.org/2000/svg" viewBox="0 0 60.07 54.1"><defs><style>.cls-1{fill:#ded01e;}</style></defs><title>finanzen</title><g id="Ebene_2" data-name="Ebene 2"><g id="Ebene_1-2" data-name="Ebene 1"><path id="coins" class="cls-1" d="M60.06,18C60,16.3,57.92,15,53.85,14a2.31,2.31,0,0,0,.22-.94V6h0C53.69.17,29.78,0,27,0S.38.17,0,6H0v.14H0V13c0,1.88,2.46,3.37,6.11,4.47A2.28,2.28,0,0,0,6,18H6v.13H6V25C2.07,26,.1,27.35,0,29H0v.13H0v6.89c0,1.32,1.2,2.46,3.15,3.38a2.21,2.21,0,0,0-.13.63H3v.13H3v6.88c0,3.33,7.51,5.4,15.84,6.37l.18,0h.06c1.6.18,3.23.33,4.85.43l.1,0h0c2.05.12,4.07.18,6,.18s3.91-.06,6-.19h0l.1,0c1.62-.1,3.25-.24,4.85-.42h.06l.18,0c8.33-1,15.83-3,15.84-6.36v-7h0c-.07-1.23-1.12-2.25-3.18-3.11a2.3,2.3,0,0,0,.19-.9V29.5c3.59-1.11,6-2.59,6-4.47V18ZM51.94,36.36l-.34.3a8.91,8.91,0,0,1-2.55,1.39V33.27a14.54,14.54,0,0,0,3-1.38V36a.6.6,0,0,1-.1.32ZM29.56,41H28V36h1c1,0,2-.06,3-.1v5l-.64,0-1.84,0Zm-4.37,0c-.46,0-.92,0-1.37,0h-.17L22,40.93v-5c1,0,2,.08,3,.09h1v5h-.84ZM7.1,38.75l-.09,0V33.88c.93.25,1.94.49,3,.69v4.89c-.92-.19-1.76-.4-2.54-.61ZM28.21,47H29v5c-1.38,0-2.71-.06-4-.12v-5c1,.05,2,.08,3,.1ZM32,47c1,0,2,0,3-.1v5c-1.29.07-2.62.1-4,.12v-5h1Zm8-.45v5c-1,.11-2,.19-3,.27v-5c1-.06,2-.14,3-.24Zm2-.22q1.55-.18,3-.42v4.92c-.94.16-1.94.31-3,.46Zm5-.78c1.07-.21,2.07-.44,3-.69v4.84c-.9.24-1.9.5-3,.73Zm-34,0v4.88c-1.1-.24-2.11-.49-3-.74V44.89c.94.26,1.94.49,3,.7ZM15,46q1.46.25,3,.42v5C17,51.19,16,51,15,50.87Zm5,.64c1,.09,2,.18,3,.24v5c-1-.08-2-.16-3-.27Zm-2.48-6-.31,0-.21,0v-5c1,.1,2,.18,3,.25v5C19.19,40.74,18.35,40.68,17.54,40.58ZM15,35.35V40.3C14,40.16,13,40,12,39.85V34.93C13,35.09,14,35.23,15,35.35ZM34.7,40.76l-.67.05v-5c1-.06,2-.15,3-.24v5l-1.9.18ZM39,40.31v-5q1.56-.18,3-.42v4.92c-1,.16-2,.31-3,.45Zm5-5.73c1.06-.21,2.07-.44,3-.69v4.84c-.89.24-1.89.5-3,.74ZM30.36,30c-.75,0-1.49-.05-2.21-.09H28v-5c1,.05,2,.08,3,.1h1v5c-.49,0-1,0-1.45,0ZM7,15.69V10.86c.93.24,1.94.49,3,.69v4.89l-.37-.08L8.09,16ZM25.21,13H26v5c-1.35,0-2.69,0-4-.11v-5c1,0,2,.08,3,.1ZM29,13c1,0,2-.05,3-.1v5l-.5,0h-.06c-.67,0-1.35.06-2.05.07H28V13h.82Zm22.81.49h0l-.37.28A9.6,9.6,0,0,1,49.06,15V10.24a14.62,14.62,0,0,0,3-1.38V13a.79.79,0,0,1-.24.49ZM39,17.25V12.33c1-.13,2-.27,3-.43v4.92c-1,.15-2,.31-3,.45Zm5-.84V11.55c1.06-.21,2.07-.44,3-.69v4.82c-.89.26-1.9.51-3,.75Zm-7-3.87v5q-1.45.15-3,.27v-5C35.05,12.72,36.06,12.64,37,12.54Zm-20,5v-5c1,.1,2,.18,3,.25v5C19,17.7,18,17.61,17,17.51Zm-2-5.18v4.94l-.6-.07L14,17.14l-1.7-.26L12,16.82V11.9C13,12.06,14,12.2,15,12.33ZM25.78,29.76l-.4,0-1.88-.16-.39,0H23v-5c1,.09,2,.17,3,.24v5ZM19.17,29,18,28.83V23.91c1,.16,2,.3,3,.42v5L19.24,29ZM16,23.56v4.88c-1.11-.24-2.11-.49-3-.76V22.87q1.39.38,3,.69Zm-5-1.31V27a6.28,6.28,0,0,1-2.92-1.78L8,25.12A.36.36,0,0,1,8,25V20.88a15.09,15.09,0,0,0,3,1.38ZM35,25c1,0,2-.05,3-.1v5c-1.32.07-2.66.11-4,.12V25h1ZM48,28.85l-1.33.22-.8.12-.78.1V24.35c1-.12,2-.27,3-.42v4.92Zm-6.78.86-1.13.08v-5c1-.07,2-.15,3-.25v5l-1.76.17Zm11.45-1.88c-.5.14-1,.27-1.57.4l-.76.17-.25.05V23.56c1.06-.21,2.07-.44,3-.69v4.84Zm5.42-9.74c-.09.67-1.64,1.58-4.39,2.43h0a67.49,67.49,0,0,1-16.1,2.41l-1.09,0-.9,0c-.83,0-1.67,0-2.54,0s-1.71,0-2.54,0l-.9,0c-.37,0-.74,0-1.09,0a67.49,67.49,0,0,1-16.1-2.41h0C9.68,19.68,8.14,18.78,8,18.1c0,0,0,0,0-.06l.21.05q.6.15,1.2.27c2,.43,4.2.78,6.55,1.05h0c1.6.18,3.26.32,5,.42H21c1.23.08,2.47.13,3.73.16L27,20c.52,0,1.06,0,1.61,0a76.57,76.57,0,0,0,18.7-2.32L48,17.5l.38-.12,1-.36.18-.07q.42-.15.81-.33l.23-.1a7.25,7.25,0,0,0,.79-.38l.32-.18.35-.21.2-.12C56.76,16.61,57.94,17.67,58.05,18.09ZM27,2c16.51,0,24.86,2.6,25,4.09-.12.68-1.66,1.57-4.38,2.42h0a67,67,0,0,1-16.11,2.4L30.48,11l-.91,0c-.83,0-1.67,0-2.54,0s-1.7,0-2.53,0l-.91,0c-.36,0-.73,0-1.08-.05A67,67,0,0,1,6.4,8.51h0C3.67,7.66,2.14,6.77,2,6.09,2.17,4.6,10.52,2,27,2ZM2,13V8.85a14.62,14.62,0,0,0,3,1.38V15C3.06,14.31,2,13.57,2,13ZM6.85,26.87l.06,0a16.8,16.8,0,0,0,7.74,3.28l.25.06.79.17A77,77,0,0,0,27,31.86h0c1.36.08,2.75.13,4.16.16L33,32c.69,0,1.4,0,2.12,0,1.31,0,2.6-.08,3.87-.15h0a76.32,76.32,0,0,0,11.56-1.48,17.71,17.71,0,0,1-2.95,1.16h0A68.89,68.89,0,0,1,30.37,34l-.68,0L29,34l-1.91,0c-.87,0-1.71,0-2.54,0l-.9,0c-.37,0-.74,0-1.09,0A67,67,0,0,1,6.4,31.53h0C3.64,30.68,2.1,29.78,2,29.1,2.13,28.72,3.14,27.78,6.85,26.87ZM2,36V31.89a15.17,15.17,0,0,0,3,1.38V38l-.58-.22h0C2.85,37.18,2,36.54,2,36Zm3,11V42.91a14.76,14.76,0,0,0,3,1.36v4.8C6.06,48.35,5,47.61,5,47.05Zm47.05,2V44.27a14.27,14.27,0,0,0,3-1.37V47c0,.57-1.05,1.3-3,2Zm3-9c-.11.68-1.65,1.58-4.38,2.42h0A66.5,66.5,0,0,1,34.56,45l-1.08,0-.91,0c-.83,0-1.67,0-2.53,0s-1.71,0-2.54,0l-.9,0-1.09,0A67,67,0,0,1,9.4,42.55h0C6.75,41.73,5.22,40.86,5,40.19L6,40.5l.1,0,.83.24.32.09.5.13A73,73,0,0,0,21,42.88h0c1.55.09,3.14.15,4.74.17H27c.55,0,1.11,0,1.68,0,1.47,0,2.91-.08,4.32-.16h0c1.72-.1,3.38-.25,5-.43h0a.07.07,0,0,0,.06,0c1.78-.2,3.47-.45,5-.75l1-.18.21,0a27,27,0,0,0,7.27-2.37l.27-.16a2.8,2.8,0,0,0,.32-.2l.3-.18c2,.7,2.53,1.33,2.59,1.58Zm0-13.06v-4.8a15.17,15.17,0,0,0,3-1.38V25C58.07,25.58,57,26.32,55.06,27.06Z"/></g></g></svg>