<svg xmlns="http://www.w3.org/2000/svg" viewBox="0 0 20.55 29.55"><defs><style>.cls-1{fill:#6b6e72;}</style></defs><title>Element 5</title><g id="Ebene_2" data-name="Ebene 2"><g id="Ebene_1-2" data-name="Ebene 1"><path id="Pfad_57" data-name="Pfad 57" class="cls-1" d="M20.52.4a.64.64,0,0,0-.61-.4H11.53a.62.62,0,0,0-.64.6v2H9.66V.6A.62.62,0,0,0,9,0H.65A.63.63,0,0,0,0,.4a.58.58,0,0,0,.2.67L6.09,5.41v5.45a.64.64,0,0,0,.7.59.63.63,0,0,0,.59-.59V5.13a.58.58,0,0,0-.24-.47L2.49,1.2H8.37v2a.63.63,0,0,0,.65.6h2.51a.63.63,0,0,0,.65-.6v-2h5.88L13.41,4.66a.58.58,0,0,0-.24.47V7.65L9.27,9.2a.6.6,0,0,0-.36.75s0,0,0,0a.68.68,0,0,0,.85.32L14.07,8.6a.6.6,0,0,0,.39-.55V5.42l5.85-4.35A.58.58,0,0,0,20.52.4Z"/><path id="Pfad_58" data-name="Pfad 58" class="cls-1" d="M13.9,10.61a.59.59,0,0,0-.56,0l-6.6,2.81a.62.62,0,0,0-.36.56v1.93a.61.61,0,0,0,.6.61.69.69,0,0,0,.24,0l6.59-2.82a.58.58,0,0,0,.36-.55V11.11A.57.57,0,0,0,13.9,10.61Zm-.93,2L7.58,15v-.63L13,12Z"/><path id="Pfad_59" data-name="Pfad 59" class="cls-1" d="M13.9,14.83a.59.59,0,0,0-.56-.05l-6.6,2.81a.62.62,0,0,0-.36.56v1.93a.61.61,0,0,0,.6.61.69.69,0,0,0,.24-.05l6.59-2.82a.58.58,0,0,0,.36-.55V15.33A.57.57,0,0,0,13.9,14.83Zm-.93,2-5.39,2.3v-.63L13,16.24Z"/><path id="Pfad_60" data-name="Pfad 60" class="cls-1" d="M13.57,19.56a.6.6,0,0,0-.6.6h0v6.07l-2.71,2L7.58,26.42v-3L10.72,22a.6.6,0,1,0-.47-1.11l-3.5,1.5a.61.61,0,0,0-.37.56v3.75a.58.58,0,0,0,.27.5l3.3,2.2a.59.59,0,0,0,.69,0l3.3-2.4a.6.6,0,0,0,.24-.49V20.17a.6.6,0,0,0-.59-.61Z"/></g></g></svg>