<svg xmlns="http://www.w3.org/2000/svg" viewBox="0 0 29.39 23.26"><defs><style>.cls-1{fill:#e14040;}</style></defs><title>Element 9</title><g id="Ebene_2" data-name="Ebene 2"><g id="Ebene_1-2" data-name="Ebene 1"><path id="Pfad_67" data-name="Pfad 67" class="cls-1" d="M29.39,7.9a7.58,7.58,0,0,1-.4,2.45C27.75,16,17,22.83,16.49,23.12a.86.86,0,0,1-.47.14.89.89,0,0,1-.47-.14A58.68,58.68,0,0,1,9.3,18.49a.88.88,0,0,1,1.14-1.34A59.83,59.83,0,0,0,16,21.35c3.25-2.12,10.4-7.5,11.28-11.46a6.17,6.17,0,0,0-2.87-7.4A6.31,6.31,0,0,0,16.69,4,.9.9,0,0,1,15.41,4L15.34,4A6.32,6.32,0,0,0,7.6,2.48,6.14,6.14,0,0,0,4.71,9.8a7,7,0,0,0,.7,1.73h5.12l1.74-4a.88.88,0,0,1,1.66.14l1.29,5.47,1.67-2.74a.88.88,0,0,1,.75-.42h3.17a.88.88,0,1,1,0,1.75H18.13l-2.52,4.14a.87.87,0,0,1-.74.42h-.14a.9.9,0,0,1-.72-.66l-1.18-5-.93,2.15a.88.88,0,0,1-.8.52H.88a.88.88,0,1,1,0-1.75H3.45A8.14,8.14,0,0,1,3,10.27,7.38,7.38,0,0,1,2.65,7.9,7.91,7.91,0,0,1,6.76,1,8.09,8.09,0,0,1,16,2.12,8.09,8.09,0,0,1,25.28,1,7.91,7.91,0,0,1,29.39,7.9Z"/></g></g></svg>