<svg xmlns="http://www.w3.org/2000/svg" viewBox="0 0 34.43 30.69"><defs><style>.cls-1{fill:#7b61a7;}</style></defs><title>Element 10</title><g id="Ebene_2" data-name="Ebene 2"><g id="Ebene_1-2" data-name="Ebene 1"><path id="Pfad_49" data-name="Pfad 49" class="cls-1" d="M29.19,10.29c-.64-.25-1.34-.47-2.06-.68a19.71,19.71,0,0,0,.44-2.13c.57-3.57-.06-6.07-1.75-7A3.29,3.29,0,0,0,24.14,0c-2,0-4.46,1.46-7,3.93-.55-.54-1.1-1-1.64-1.47-2.82-2.28-5.3-3-7-2A4.45,4.45,0,0,0,6.63,4.16a.54.54,0,0,0,.49.59.55.55,0,0,0,.6-.49A3.58,3.58,0,0,1,9.09,1.4c1.25-.73,3.35,0,5.74,1.91a20,20,0,0,1,1.58,1.41A34.68,34.68,0,0,0,13.3,8.55a36.91,36.91,0,0,0-5,.8,20.17,20.17,0,0,1-.55-3,.55.55,0,0,0-1.1.11,22.26,22.26,0,0,0,.58,3.16c-.7.2-1.37.42-2,.66C1.86,11.59,0,13.38,0,15.34s1.86,3.74,5.23,5c.65.25,1.34.48,2.07.68q-.28,1.1-.45,2.13c-.56,3.57.06,6.08,1.76,7a3.29,3.29,0,0,0,1.68.43c1.94,0,4.4-1.43,6.88-3.85a20.81,20.81,0,0,0,1.6,1.43c2,1.61,3.81,2.44,5.31,2.44a3.25,3.25,0,0,0,1.67-.43c1.7-1,2.32-3.48,1.76-7q-.17-1-.45-2.13A22.24,22.24,0,0,0,30.15,20a.55.55,0,1,0-.45-1,20.41,20.41,0,0,1-2.93,1A36,36,0,0,0,25,15.42a36.52,36.52,0,0,0,1.83-4.76c4.07,1.14,6.49,2.95,6.49,4.67A3.59,3.59,0,0,1,31.54,18a.55.55,0,0,0-.13.77.55.55,0,0,0,.76.13h0a4.48,4.48,0,0,0,2.26-3.51c0-2-1.86-3.75-5.23-5.05ZM24.14,1.1a2.21,2.21,0,0,1,1.13.28c1.25.72,1.7,2.89,1.22,5.93-.1.65-.25,1.33-.43,2a35.43,35.43,0,0,0-5-.79,34.59,34.59,0,0,0-3.1-3.83l.59-.56c2.14-2,4.13-3.06,5.61-3.06Zm-7,4.41a32.38,32.38,0,0,1,2.44,2.93c-.78,0-1.58-.06-2.39-.06s-1.67,0-2.48.07a32.69,32.69,0,0,1,2.43-2.94Zm0,19.75a33.3,33.3,0,0,1-2.52-3c.84.05,1.7.08,2.57.08s1.66,0,2.48-.08a33.41,33.41,0,0,1-2.53,3Zm0-4.06c-1.18,0-2.31-.05-3.39-.13-.61-.89-1.2-1.82-1.76-2.79S11,16.37,10.56,15.42c.48-1,1-2,1.58-3S13.3,10.5,13.91,9.6q1.59-.12,3.3-.12c1.12,0,2.2,0,3.23.11.62.9,1.21,1.85,1.78,2.83s1.1,2,1.58,3c-.46,1-1,1.9-1.51,2.85s-1.15,1.9-1.77,2.8c-1.08.08-2.18.13-3.31.13Zm-4.81-.27a32,32,0,0,1-3.75-.65A34.64,34.64,0,0,1,10,16.71c.36.71.74,1.42,1.15,2.12s.84,1.42,1.29,2.1Zm.09-11.2c-.45.69-.88,1.39-1.31,2.13s-.84,1.5-1.22,2.26a35.16,35.16,0,0,1-1.38-3.71,32.47,32.47,0,0,1,3.9-.68ZM1.1,15.33c0-1.72,2.39-3.51,6.43-4.65a36,36,0,0,0,1.81,4.73A36,36,0,0,0,7.59,20C3.52,18.87,1.1,17.07,1.1,15.34Zm9.19,14.24a2.21,2.21,0,0,1-1.13-.28c-1.26-.72-1.7-2.88-1.22-5.93.1-.65.25-1.33.42-2a36.28,36.28,0,0,0,4.85.78A34.43,34.43,0,0,0,16.4,26l-.5.47C13.76,28.49,11.77,29.57,10.29,29.57Zm16.13-6.2c.48,3.05,0,5.21-1.22,5.93s-3.34,0-5.74-1.91c-.5-.41-1-.86-1.52-1.35a34.43,34.43,0,0,0,3.19-3.93A34.62,34.62,0,0,0,26,21.34c.18.71.33,1.38.43,2Zm-.72-3.09a34.36,34.36,0,0,1-3.76.65c.44-.68.88-1.39,1.3-2.12s.78-1.4,1.14-2.11a32.83,32.83,0,0,1,1.32,3.59Zm-1.31-6.16c-.38-.75-.79-1.5-1.22-2.25s-.87-1.46-1.32-2.15a32.39,32.39,0,0,1,3.92.66,33,33,0,0,1-1.38,3.75Z"/><path id="Pfad_50" data-name="Pfad 50" class="cls-1" d="M17.21,12.59A2.75,2.75,0,1,0,20,15.34h0A2.75,2.75,0,0,0,17.21,12.59Zm0,4.4a1.65,1.65,0,1,1,1.65-1.65h0A1.64,1.64,0,0,1,17.21,17Z"/></g></g></svg>