<svg xmlns="http://www.w3.org/2000/svg" viewBox="0 0 31.23 29"><defs><style>.cls-1{fill:none;stroke:#935bd9;stroke-width:2px;}</style></defs><title>Element 1</title><g id="Ebene_2" data-name="Ebene 2"><g id="Ebene_1-2" data-name="Ebene 1"><g id="Icon_ionic-ios-book" data-name="Icon ionic-ios-book"><path id="Pfad_75" data-name="Pfad 75" class="cls-1" d="M7.88,1c3.8,0,7,2,7,5.76V7.9h0v20a.14.14,0,0,1-.27.05h0a6.63,6.63,0,0,0-5.79-5,8.93,8.93,0,0,0-6.54,2.61.74.74,0,0,1-.47.2H1.53A.51.51,0,0,1,1,25.32V5C1,2.7,4.08,1,7.88,1Z"/><path id="Pfad_76" data-name="Pfad 76" class="cls-1" d="M23.35,1c-3.8,0-7,2-7,5.77V7.89h0v20a.14.14,0,0,0,.14.14.14.14,0,0,0,.13-.09h0a6.67,6.67,0,0,1,5.79-4.95,8.87,8.87,0,0,1,6.54,2.61.87.87,0,0,0,.46.2h.32a.51.51,0,0,0,.53-.43V4.94C30.24,2.69,27.16,1,23.35,1Z"/></g></g></g></svg>