<svg xmlns="http://www.w3.org/2000/svg" viewBox="0 0 34.66 23.64"><defs><style>.cls-1{fill:#8d6e23;}</style></defs><title>Element 11</title><g id="Ebene_2" data-name="Ebene 2"><g id="Ebene_1-2" data-name="Ebene 1"><path id="delivery-truck" class="cls-1" d="M28.34,17.28a3.19,3.19,0,0,0-2.26.94A3.13,3.13,0,0,0,26,22.65l.06.06a3.23,3.23,0,0,0,2.26.93,3.18,3.18,0,0,0,0-6.36Zm0,4.94a1.76,1.76,0,1,1-.09-3.52h.09a1.76,1.76,0,0,1,0,3.52ZM29.16,6.7a.7.7,0,0,0-.48-.18H25.06a.7.7,0,0,0-.7.7V13a.7.7,0,0,0,.7.71h5.75a.7.7,0,0,0,.7-.71V9.14a.68.68,0,0,0-.23-.52Zm.94,5.6H25.77V7.92h2.64L30.1,9.45Zm-19,5a3.2,3.2,0,0,0-2.26.93,3.14,3.14,0,0,0-.05,4.44s0,0,.05.05a3.18,3.18,0,1,0,2.26-5.42Zm0,4.94A1.77,1.77,0,0,1,11,18.69h.08a1.77,1.77,0,0,1,0,3.53ZM6.39,18.15H5V16.28a.7.7,0,0,0-.7-.71.71.71,0,0,0-.71.71v2.58a.7.7,0,0,0,.71.7H6.39a.71.71,0,0,0,.71-.7.72.72,0,0,0-.71-.71ZM10,14.3a.71.71,0,0,0-.7-.71H.7A.71.71,0,0,0,.7,15H9.27a.7.7,0,0,0,.7-.7ZM2.14,11.75l8.56.05a.7.7,0,0,0,.71-.7.69.69,0,0,0-.68-.71h0l-8.56-.05h0a.71.71,0,1,0,0,1.41Zm1.44-3.2h8.56a.71.71,0,0,0,0-1.41H3.58a.71.71,0,0,0-.71.71.7.7,0,0,0,.71.7Zm30.82-1h0L29.34,3.41a.65.65,0,0,0-.45-.16H23V.71a.71.71,0,0,0-.7-.71h-18a.71.71,0,0,0-.71.71V5.87a.71.71,0,0,0,.71.71A.7.7,0,0,0,5,5.87H5V1.41H21.55V18.15H15.76a.71.71,0,0,0,0,1.41h8.62a.71.71,0,0,0,0-1.41H23V4.66h5.69l4.6,3.82,0,9.66h-.74a.71.71,0,0,0-.05,1.41H33.9a.7.7,0,0,0,.7-.69h0l.06-10.7A.76.76,0,0,0,34.4,7.59Z"/></g></g></svg>