<svg xmlns="http://www.w3.org/2000/svg" viewBox="0 0 19.42 27.62"><defs><style>.cls-1{fill:#3a52a0;}</style></defs><title>Element 12</title><g id="Ebene_2" data-name="Ebene 2"><g id="Ebene_1-2" data-name="Ebene 1"><path id="Pfad_65" data-name="Pfad 65" class="cls-1" d="M15.58,8.78c-.43-.66-.84-1.29-1.21-1.89l-4-6.5A.81.81,0,0,0,9.29.12.87.87,0,0,0,9,.39l-4,6.5c-.37.6-.78,1.23-1.21,1.89C2,11.51,0,14.61,0,17.91a9.71,9.71,0,0,0,19.42,0C19.42,14.61,17.38,11.51,15.58,8.78ZM9.71,26a8.09,8.09,0,0,1-8.09-8.09c0-2.82,1.9-5.7,3.57-8.24.44-.67.86-1.31,1.25-1.94L9.71,2.36,13,7.73c.39.63.8,1.27,1.25,1.94,1.67,2.54,3.57,5.42,3.57,8.24A8.1,8.1,0,0,1,9.71,26Z"/><path id="Pfad_66" data-name="Pfad 66" class="cls-1" d="M12.22,15.59H9.15l2.32-2.31a.81.81,0,0,0-1.13-1.16h0l-3.7,3.7a.81.81,0,0,0,.57,1.38h3.06L7.67,19.79a.81.81,0,0,0,1.15,1.15l4-4a.81.81,0,0,0,0-1.14.8.8,0,0,0-.58-.24Z"/></g></g></svg>