<svg xmlns="http://www.w3.org/2000/svg" viewBox="0 0 33.03 17.37"><defs><style>.cls-1{fill:#116636;}</style></defs><title>Element 8</title><g id="Ebene_2" data-name="Ebene 2"><g id="Ebene_1-2" data-name="Ebene 1"><g id="Gruppe_43" data-name="Gruppe 43"><path id="Pfad_51" data-name="Pfad 51" class="cls-1" d="M31.31,6.68,28.66,5.47,26.32,1.74A3.68,3.68,0,0,0,23.17,0h-10a3.7,3.7,0,0,0-2.95,1.46l-3,4-5,1.38A3,3,0,0,0,0,9.65v1.93a3,3,0,0,0,2.93,3h.43a3.76,3.76,0,0,0,7.28,0H22a3.76,3.76,0,0,0,7.28,0h.81a3,3,0,0,0,2.93-3V9.38A3,3,0,0,0,31.31,6.68ZM7,16a2.4,2.4,0,1,1,2.4-2.4h0A2.4,2.4,0,0,1,7,16Zm18.65,0a2.4,2.4,0,1,1,2.4-2.4h0a2.41,2.41,0,0,1-2.4,2.4Zm4.45-2.8h-.71a3.76,3.76,0,0,0-7.48,0H10.74a3.76,3.76,0,0,0-7.48,0H2.92a1.6,1.6,0,0,1-1.57-1.63h0V9.65A1.59,1.59,0,0,1,2.52,8.1L7.79,6.66a.74.74,0,0,0,.36-.24L11.3,2.28a2.42,2.42,0,0,1,1.89-.92h10a2.33,2.33,0,0,1,2,1.1l2.45,3.91a.73.73,0,0,0,.29.26l2.83,1.29a1.6,1.6,0,0,1,.93,1.46v2.2h0A1.6,1.6,0,0,1,30.1,13.2Z"/></g></g></g></svg>