<svg xmlns="http://www.w3.org/2000/svg" viewBox="0 0 28.32 24.89"><defs><style>.cls-1{fill:#62a955;}</style></defs><title>Element 7</title><g id="Ebene_2" data-name="Ebene 2"><g id="Ebene_1-2" data-name="Ebene 1"><path id="Pfad_62" data-name="Pfad 62" class="cls-1" d="M9.12,16.6H24.17A.83.83,0,0,0,25,16L28.29,4.38a.83.83,0,0,0-.57-1,.85.85,0,0,0-.23,0H7.21L6.62.65A.83.83,0,0,0,5.81,0h-5a.83.83,0,0,0,0,1.66H5.14l3,13.48a2.49,2.49,0,0,0,1,4.78h15a.83.83,0,0,0,0-1.66h-15a.83.83,0,0,1-.8-.86.82.82,0,0,1,.8-.8ZM26.39,5l-2.84,10H9.79L7.58,5Z"/><path id="Pfad_63" data-name="Pfad 63" class="cls-1" d="M8.3,22.4a2.49,2.49,0,1,0,2.49-2.49A2.48,2.48,0,0,0,8.3,22.4Zm2.49-.83a.83.83,0,1,1-.83.83h0a.83.83,0,0,1,.83-.83Z"/><path id="Pfad_64" data-name="Pfad 64" class="cls-1" d="M20,22.4a2.49,2.49,0,1,0,2.49-2.49A2.49,2.49,0,0,0,20,22.4Zm2.49-.83a.83.83,0,1,1-.83.83h0a.84.84,0,0,1,.83-.83Z"/></g></g></svg>