<svg xmlns="http://www.w3.org/2000/svg" viewBox="0 0 28.33 25.24"><defs><style>.cls-1{fill:#4da1b1;}</style></defs><title>Element 4</title><g id="Ebene_2" data-name="Ebene 2"><g id="Ebene_1-2" data-name="Ebene 1"><g id="Gruppe_45" data-name="Gruppe 45"><g id="Gruppe_44" data-name="Gruppe 44"><path id="Pfad_54" data-name="Pfad 54" class="cls-1" d="M26.62,0H1.71A1.72,1.72,0,0,0,0,1.71v17.2a1.72,1.72,0,0,0,1.71,1.71h8.53v1.24a2.06,2.06,0,0,1-2.06,2.07H6.3a.66.66,0,0,0,0,1.31H22a.66.66,0,1,0,0-1.31H20.15a2.07,2.07,0,0,1-2.07-2.07V20.62h8.54a1.72,1.72,0,0,0,1.71-1.71V1.71A1.72,1.72,0,0,0,26.62,0ZM10.84,23.93a3.37,3.37,0,0,0,.71-2.07V20.62h5.23v1.24a3.37,3.37,0,0,0,.71,2.07Zm16.18-5a.4.4,0,0,1-.4.4H1.71a.4.4,0,0,1-.4-.4h0V15.47H27Zm0-4.74H1.31V1.71a.4.4,0,0,1,.4-.4H26.62a.4.4,0,0,1,.4.4V14.17Z"/></g></g></g></g></svg>