<svg xmlns="http://www.w3.org/2000/svg" viewBox="0 0 80.3 61.09"><defs><style>.cls-1{stroke:#fff;stroke-width:0.25px;}</style></defs><title>Breitband</title><g id="Ebene_2" data-name="Ebene 2"><g id="Ebene_1-2" data-name="Ebene 1"><g id="Gruppe_236" data-name="Gruppe 236"><g id="Gruppe_120" data-name="Gruppe 120"><path id="Pfad_2384" data-name="Pfad 2384" class="cls-1" d="M71.83,37.62H8.46A8.35,8.35,0,0,0,.12,46v6.67A8.36,8.36,0,0,0,8.46,61H71.83a8.35,8.35,0,0,0,8.34-8.34V46A8.34,8.34,0,0,0,71.83,37.62Zm5,15a5,5,0,0,1-5,5H8.46a5,5,0,0,1-5-5V46a5,5,0,0,1,5-5H71.83a5,5,0,0,1,5,5v6.67Z"/></g><g id="Gruppe_122" data-name="Gruppe 122"><path id="Pfad_2385" data-name="Pfad 2385" class="cls-1" d="M58.49,14.27a1.66,1.66,0,0,0-1.66,1.67V39.29a1.67,1.67,0,0,0,3.33,0V15.94A1.67,1.67,0,0,0,58.49,14.27Z"/></g><g id="Gruppe_124" data-name="Gruppe 124"><circle id="Ellipse_389" data-name="Ellipse 389" class="cls-1" cx="11.8" cy="49.29" r="1.67"/></g><g id="Gruppe_126" data-name="Gruppe 126"><circle id="Ellipse_390" data-name="Ellipse 390" class="cls-1" cx="21.8" cy="49.29" r="1.67"/></g><g id="Gruppe_128" data-name="Gruppe 128"><circle id="Ellipse_391" data-name="Ellipse 391" class="cls-1" cx="31.81" cy="49.29" r="1.67"/></g><g id="Gruppe_130" data-name="Gruppe 130"><circle id="Ellipse_392" data-name="Ellipse 392" class="cls-1" cx="41.82" cy="49.29" r="1.67"/></g><g id="Gruppe_132" data-name="Gruppe 132"><path id="Pfad_2386" data-name="Pfad 2386" class="cls-1" d="M68.5,47.62H51.82a1.67,1.67,0,0,0,0,3.34H68.5a1.67,1.67,0,0,0,0-3.34Z"/></g><g id="Gruppe_134" data-name="Gruppe 134"><path id="Pfad_2387" data-name="Pfad 2387" class="cls-1" d="M53.49,15.94A5,5,0,0,1,55,12.4,1.67,1.67,0,1,0,52.6,10h0a8.34,8.34,0,0,0,0,11.8,1.66,1.66,0,0,0,1.18.48A1.61,1.61,0,0,0,55,21.84a1.67,1.67,0,0,0,0-2.36A5,5,0,0,1,53.49,15.94Z"/></g><g id="Gruppe_136" data-name="Gruppe 136"><path id="Pfad_2388" data-name="Pfad 2388" class="cls-1" d="M64.39,10A1.67,1.67,0,1,0,62,12.4a5,5,0,0,1,0,7.07h0a1.67,1.67,0,0,0,2.36,2.36,8.34,8.34,0,0,0,0-11.8Z"/></g><g id="Gruppe_138" data-name="Gruppe 138"><path id="Pfad_2389" data-name="Pfad 2389" class="cls-1" d="M50.23,7.69a1.67,1.67,0,0,0-2.35-2.36,15,15,0,0,0,0,21.23,1.67,1.67,0,0,0,2.35-2.36A11.71,11.71,0,0,1,50.23,7.69Z"/></g><g id="Gruppe_140" data-name="Gruppe 140"><path id="Pfad_2390" data-name="Pfad 2390" class="cls-1" d="M69.11,5.33a1.67,1.67,0,0,0-2.36,2.36,11.69,11.69,0,0,1,0,16.51,1.67,1.67,0,0,0,2.36,2.36A15,15,0,0,0,69.11,5.33Z"/></g><g id="Gruppe_142" data-name="Gruppe 142"><path id="Pfad_2391" data-name="Pfad 2391" class="cls-1" d="M45.52,3A1.67,1.67,0,1,0,43.16.61a21.71,21.71,0,0,0,0,30.66,1.67,1.67,0,1,0,2.36-2.36A18.35,18.35,0,0,1,45.52,3Z"/></g><g id="Gruppe_144" data-name="Gruppe 144"><path id="Pfad_2392" data-name="Pfad 2392" class="cls-1" d="M73.82.61A1.67,1.67,0,1,0,71.46,3a18.35,18.35,0,0,1,0,25.94,1.67,1.67,0,1,0,2.36,2.36A21.69,21.69,0,0,0,73.82.61Z"/></g></g></g></g></svg>