<svg xmlns="http://www.w3.org/2000/svg" viewBox="0 0 66.13 88.01"><defs><style>.cls-1{stroke:#fff;stroke-width:0.5px;}</style></defs><title>Datenschutz</title><g id="Ebene_2" data-name="Ebene 2"><g id="Ebene_1-2" data-name="Ebene 1"><g id="lock"><g id="Gruppe_117" data-name="Gruppe 117"><g id="Gruppe_116" data-name="Gruppe 116"><path id="Pfad_2378" data-name="Pfad 2378" class="cls-1" d="M28.76,60.81,27.61,71.15a1.82,1.82,0,0,0,1.61,2h7.49a1.82,1.82,0,0,0,1.83-1.82,1.36,1.36,0,0,0,0-.2L37.38,60.81a7.2,7.2,0,0,0,3-5.87,7.3,7.3,0,1,0-11.6,5.87Zm4.31-9.51a3.63,3.63,0,0,1,1.57,6.91,1.85,1.85,0,0,0-1,1.85l1.06,9.47H31.46l1-9.47a1.82,1.82,0,0,0-1-1.85,3.63,3.63,0,0,1,1.58-6.91Z"/><path id="Pfad_2379" data-name="Pfad 2379" class="cls-1" d="M64.06,33.07H58.59v-7.3a25.53,25.53,0,0,0-51.05,0v7.3H2.07A1.82,1.82,0,0,0,.25,34.89h0V80.47a7.3,7.3,0,0,0,7.29,7.29H58.59a7.29,7.29,0,0,0,7.29-7.29V34.89a1.81,1.81,0,0,0-1.82-1.82Zm-52.87-7.3a21.88,21.88,0,0,1,43.75,0v7.3H51.3v-7.3a18.23,18.23,0,0,0-36.46,0v7.3H11.19Zm36.46,0v7.3H18.48v-7.3a14.59,14.59,0,1,1,29.17,0Zm14.59,54.7a3.66,3.66,0,0,1-3.65,3.64H7.54A3.64,3.64,0,0,1,3.9,80.47V36.71H62.24Z"/></g></g></g></g></g></svg>