<svg xmlns="http://www.w3.org/2000/svg" viewBox="0 0 90.73 105.3"><defs><style>.cls-1{fill:#00071f;stroke:#fff;stroke-width:4px;}</style></defs><title>Innovation</title><g id="Ebene_2" data-name="Ebene 2"><g id="Ebene_1-2" data-name="Ebene 1"><path id="innovationsfähigkeit" class="cls-1" d="M69.48,55.63a3.77,3.77,0,0,0-5.28.63l-.1.12A60.18,60.18,0,0,1,57,64c-3.74,3.62-7.31,7.08-8.72,11.57H30.72C29.3,71.11,25.73,67.65,22,64,15.93,58.17,9.67,52.11,9.67,40.23a30.41,30.41,0,0,1,8.69-21.37,29.21,29.21,0,0,1,21-8.95h.26A3.91,3.91,0,0,0,43.46,6a3.9,3.9,0,0,0-3.81-4A36.73,36.73,0,0,0,13,13.24a38.42,38.42,0,0,0-11,27c0,15.3,8.52,23.54,14.74,29.56,4.3,4.16,6.94,6.87,6.94,10V91.43A11.71,11.71,0,0,0,35.19,103.3h8.64A11.71,11.71,0,0,0,55.34,91.43V80.05c0-.1,0-.2,0-.3,0-3.07,2.63-5.78,6.94-9.94a70.28,70.28,0,0,0,7.91-8.63A4,4,0,0,0,69.48,55.63ZM43.83,95.38H35.19a3.89,3.89,0,0,1-3.83-3.95V83.51H47.67v7.92A3.9,3.9,0,0,1,43.83,95.38ZM35,26A14.8,14.8,0,0,0,24.83,40.18a3.84,3.84,0,1,1-7.67.22v-.22A22.63,22.63,0,0,1,32.71,18.42a3.83,3.83,0,0,1,4.78,2.52s0,0,0,.08A4,4,0,0,1,35,26Zm52.14,1.72L83.44,25c0-.2,0-.4,0-.59s0-.48,0-.72a1.93,1.93,0,0,0,0-.24c0-.08,0-.15,0-.22l3.81-3a4,4,0,0,0,1-5l-1.72-3.29A3.79,3.79,0,0,0,81.86,10L77.32,11.7a16.35,16.35,0,0,0-1.79-1.19l-.17-.1c-.15-.09-.31-.17-.47-.25L74.64,10l-.22-.1L73.6,5.26A3.88,3.88,0,0,0,69.83,2H66.18a3.89,3.89,0,0,0-3.8,3.41l-.61,4.52a15.09,15.09,0,0,0-3.17,2l-4.45-1.43a3.8,3.8,0,0,0-4.58,2L47.88,16a4,4,0,0,0,1.26,5l3.63,2.56c0,.26,0,.53,0,.8s0,.48,0,.73c0,.08,0,.16,0,.24s0,.17,0,.25l-3.68,3a4,4,0,0,0-.91,5.13L50,36.82a3.78,3.78,0,0,0,4.6,1.7L58.82,37a15,15,0,0,0,3,1.82l.82,4.68a3.86,3.86,0,0,0,3.77,3.25h3.46a3.88,3.88,0,0,0,3.79-3.33l.7-4.55a15.36,15.36,0,0,0,3.57-2.28l4.36,1.33a3.81,3.81,0,0,0,4.52-2l1.55-3.18A4,4,0,0,0,87.13,27.69ZM60.44,23.92v-.06l0-.39v0l.06-.41v0c0-.13,0-.27.08-.41a8.06,8.06,0,0,1,2-3.75l.08-.09.23-.23.06-.05c.16-.14.32-.29.5-.42l0,0c.1-.07.19-.15.29-.21h0a4.49,4.49,0,0,1,.59-.37l.07,0,.29-.16.1,0a4,4,0,0,1,.47-.21l.2-.08.23-.08.33-.1a7.5,7.5,0,0,1,4.07,0l.32.1.18.07.28.11.25.1a2.44,2.44,0,0,1,.28.14l.2.1.22.13.18.1.35.23.15.12a1.88,1.88,0,0,1,.24.18l.14.11.33.3.09.09.26.26a8,8,0,0,1,1.93,3.64,3.38,3.38,0,0,1,.08.34s0,.09,0,.13,0,.22,0,.32a.59.59,0,0,0,0,.14l0,.34v.12c0,.15,0,.3,0,.46s0,.54,0,.82v0c0,.12,0,.24,0,.37s0,.09,0,.13,0,.17,0,.26a7.93,7.93,0,0,1-1.75,3.6l-.34.38-.08.07a2.37,2.37,0,0,1-.28.27l-.15.14-.33.27-.21.15-.19.13L72,31.2l-.22.13-.23.12-.26.13-.27.11-.34.14-.16.05L70,32a7.42,7.42,0,0,1-3.94,0l-.32-.1-.19-.07-.27-.11-.3-.13-.23-.11-.22-.12-.19-.1L64,31l-.22-.15-.2-.14-.19-.15-.17-.14-.31-.28a1.85,1.85,0,0,1-.14-.14l-.2-.21a7.85,7.85,0,0,1-1.94-3.65c0-.11,0-.21-.07-.32s0-.09,0-.14a3.06,3.06,0,0,1,0-.32.78.78,0,0,0,0-.14l0-.33a.49.49,0,0,0,0-.12c0-.16,0-.3,0-.46S60.43,24.06,60.44,23.92Zm-32.54,25A4,4,0,1,1,24.07,53a.49.49,0,0,1,0-.12A3.9,3.9,0,0,1,27.9,48.89Z"/></g></g></svg>