<svg xmlns="http://www.w3.org/2000/svg" viewBox="0 0 85.42 66.95"><title>KnowHow</title><g id="Ebene_2" data-name="Ebene 2"><g id="Ebene_1-2" data-name="Ebene 1"><g id="books"><path id="Pfad_2377" data-name="Pfad 2377" d="M85.42,63.08,69.33,5.16,55.47,9,57,14.53H41.59V6.85H27.2v5.68H19.41V0H0V67H59.63V24L71.55,66.93ZM30,9.6h8.87v6.83H30Zm0,18.27h8.87V59.23H30Zm0-2.76V23.53h8.87v1.58Zm0-4.34V19.19h8.87v1.59ZM16.65,58.83H2.76V8.09h13.9Zm0-56.07V5.33H2.76V2.76ZM2.76,64.19V61.58h13.9v2.61Zm24.44,0H19.41V15.29H27.2Zm2.76,0V62h8.87v2.2Zm26.92,0H41.59V17.29H56.88Zm16.6-.66-9.7-34.92,8.54-2.38L82,61.16ZM63,26l-.76-2.73,8.55-2.38.76,2.74ZM67.42,8.56l2.67,9.62-8.55,2.38-2.67-9.63Z"/><rect id="Rechteck_3008" data-name="Rechteck 3008" x="44.79" y="20.27" width="8.88" height="2.76"/><rect id="Rechteck_3009" data-name="Rechteck 3009" x="44.79" y="25.11" width="8.88" height="2.76"/><rect id="Rechteck_3010" data-name="Rechteck 3010" x="44.79" y="29.96" width="8.88" height="2.76"/><rect id="Rechteck_3011" data-name="Rechteck 3011" x="44.79" y="58.02" width="8.88" height="2.76"/><rect id="Rechteck_3012" data-name="Rechteck 3012" x="21.93" y="40.83" width="2.76" height="4.64"/><rect id="Rechteck_3013" data-name="Rechteck 3013" x="21.93" y="48.1" width="2.76" height="10.5"/><rect id="Rechteck_3014" data-name="Rechteck 3014" x="21.93" y="25.69" width="2.76" height="12.52"/><rect id="Rechteck_3015" data-name="Rechteck 3015" x="21.93" y="18.42" width="2.76" height="4.84"/></g></g></g></svg>