<svg xmlns="http://www.w3.org/2000/svg" viewBox="0 0 74.23 86.25"><defs><style>.cls-1{stroke:#fff;}</style></defs><title>Kosten</title><g id="Ebene_2" data-name="Ebene 2"><g id="Ebene_1-2" data-name="Ebene 1"><g id="money-bag"><g id="Gruppe_118" data-name="Gruppe 118"><path id="Pfad_2380" data-name="Pfad 2380" class="cls-1" d="M40,54H35.11A3.21,3.21,0,1,1,35,47.59h8.69a2.13,2.13,0,0,0,.09-4.25H39.67v-3a2.13,2.13,0,1,0-4.26-.1v3.06h-.3a7.46,7.46,0,0,0,0,14.92H40a3.21,3.21,0,0,1,0,6.41H31.25a2.13,2.13,0,0,0,0,4.26h4.18v3a2.13,2.13,0,0,0,4.26.09V68.93h.4A7.47,7.47,0,0,0,40,54Z"/><path id="Pfad_2381" data-name="Pfad 2381" class="cls-1" d="M69.51,49.18A61.13,61.13,0,0,0,60.3,34.4,68.9,68.9,0,0,0,48.5,23.18l9-16.76a2.11,2.11,0,0,0-.39-2.52A10.58,10.58,0,0,0,49.56.5a17.87,17.87,0,0,0-6.88,1.81A13.13,13.13,0,0,1,38.35,3.6a2.54,2.54,0,0,1-1-.18C33.13,1.88,29.88.92,26.74.92c-4,0-7.35,1.6-10.66,5a2.13,2.13,0,0,0-.25,2.66l9.74,14.73A69.83,69.83,0,0,0,13.93,34.4,61.44,61.44,0,0,0,4.72,49.18,50.24,50.24,0,0,0,.5,69.25,16.53,16.53,0,0,0,17,85.75H57.23a16.53,16.53,0,0,0,16.5-16.5A50.24,50.24,0,0,0,69.51,49.18ZM20.37,7.7a9.23,9.23,0,0,1,6.38-2.55c2.51,0,5.35.85,9.12,2.25a7.17,7.17,0,0,0,2.47.42,15.47,15.47,0,0,0,5.95-1.61,14.39,14.39,0,0,1,5.25-1.49A5.7,5.7,0,0,1,53,5.89L44.45,21.7H29.63ZM57.23,81.5H17A12.27,12.27,0,0,1,4.75,69.25c0-11.36,4.17-22.14,12.36-32A64.93,64.93,0,0,1,29.14,26H45.05a63.71,63.71,0,0,1,12,11.27c8.2,9.89,12.35,20.65,12.35,32A12.21,12.21,0,0,1,57.27,81.49h0Z"/></g></g></g></g></svg>