<svg xmlns="http://www.w3.org/2000/svg" viewBox="0 0 77.62 77.62"><defs><style>.cls-1{fill:#00071f;stroke:#fff;stroke-width:2px;}</style></defs><title>kundenkommunikation</title><g id="Ebene_2" data-name="Ebene 2"><g id="Ebene_1-2" data-name="Ebene 1"><path id="Kundenkommunikation" class="cls-1" d="M56.91,8.86A3,3,0,1,1,57.57,13h0A3,3,0,0,1,56.91,8.86Zm12.25,20a3,3,0,1,0,1.9-3.71h0A3,3,0,0,0,69.16,28.89ZM67,21.24A2.95,2.95,0,1,0,64.62,20,3,3,0,0,0,67,21.24ZM48.68,8.45a2.95,2.95,0,1,0-1.9-3.72A2.95,2.95,0,0,0,48.68,8.45ZM35.91,4.53c0,.09.05.18.08.28s.06.18.09.27a4.29,4.29,0,0,0,.28.51c0,.08.11.15.17.23a3,3,0,0,0,.64.58,3.14,3.14,0,0,0,.51.27l.28.1.28.07.28,0h.29a2.78,2.78,0,0,0,.58-.06l.28-.07a1.69,1.69,0,0,0,.27-.1,2.49,2.49,0,0,0,.51-.27,3,3,0,0,0,.65-.58c.06-.08.12-.15.17-.23a3.14,3.14,0,0,0,.27-.51c0-.09.07-.18.1-.27a1.64,1.64,0,0,0,.07-.28A2.86,2.86,0,0,0,41.77,4a2.81,2.81,0,0,0,0-.29,2.93,2.93,0,0,0,0-.29,1.64,1.64,0,0,0-.07-.28,1.48,1.48,0,0,0-.1-.27,1.51,1.51,0,0,0-.12-.26,1.65,1.65,0,0,0-.15-.25,2,2,0,0,0-.17-.23,2.65,2.65,0,0,0-.41-.41l-.24-.17a2.07,2.07,0,0,0-.25-.15,1.23,1.23,0,0,0-.26-.12l-.27-.1A2.69,2.69,0,0,0,39.1,1a2.81,2.81,0,0,0-.58,0,1.45,1.45,0,0,0-.29,0L38,1.13l-.27.1-.26.12-.25.15-.23.17a2.65,2.65,0,0,0-.41.41,2.15,2.15,0,0,0-.18.24l-.15.24-.12.26a2.31,2.31,0,0,0-.1.28,2.29,2.29,0,0,0-.07.28,2.69,2.69,0,0,0-.06.57,2.86,2.86,0,0,0,.06.58ZM70.55,59.25a37.54,37.54,0,0,0,6.07-20.51c0-.1,0-.2,0-.29s0,0,0,0l0-.24a3.27,3.27,0,0,0-.34-.9l-.09-.14,0-.07a1.09,1.09,0,0,0-.13-.17l0,0-.15-.17,0,0-.17-.15,0,0-.16-.13-.08,0-.14-.08a3,3,0,0,0-.9-.34l-.24,0a3.64,3.64,0,0,0-.66,0l-.24,0a2.74,2.74,0,0,0-.9.34.42.42,0,0,0-.14.09l-.08,0-.16.12,0,0-.18.16,0,0-.16.17-.21.29-.09.15a3,3,0,0,0-.34.9l0,.23v0a2.83,2.83,0,0,0,0,.29A31.94,31.94,0,0,1,55.37,66V59.23a3,3,0,0,0-3-2.95h0a3,3,0,0,0-2.95,2.95v8.62A8.65,8.65,0,0,0,52,74a8.88,8.88,0,0,0,6.29,2.58h8.58a3,3,0,0,0,0-5.9h-8A37.9,37.9,0,0,0,70.55,59.25ZM28.94,69.17a2.95,2.95,0,1,0,1.9,3.71A2.95,2.95,0,0,0,28.94,69.17Zm-8.88-4.53a2.95,2.95,0,1,0,.65,4.12,3,3,0,0,0-.65-4.12ZM8.46,48.73a3,3,0,1,0-1.9,3.71h0A3,3,0,0,0,8.46,48.73ZM8.87,57A2.95,2.95,0,1,0,13,57.6,2.94,2.94,0,0,0,8.87,57l0,0ZM41.71,73.09c0-.09-.05-.18-.07-.28l-.1-.27a3.15,3.15,0,0,0-.28-.51,2.72,2.72,0,0,0-.58-.64l-.23-.17c-.08-.06-.17-.1-.25-.15S40,71,39.94,71l-.27-.1-.28-.07-.29,0a2.81,2.81,0,0,0-.58,0l-.29,0-.28.07-.27.1a2.68,2.68,0,0,0-.51.27,3,3,0,0,0-.65.58,2,2,0,0,0-.17.23,2.49,2.49,0,0,0-.27.51c0,.09-.07.18-.1.27a3.08,3.08,0,0,0-.13.86,2.94,2.94,0,0,0,.86,2.08,3.16,3.16,0,0,0,.45.37l.25.15.26.12.27.1.29.07.28,0h.58l.29,0,.28-.07a1.69,1.69,0,0,0,.27-.1l.27-.12.24-.15a3.16,3.16,0,0,0,.45-.37,3,3,0,0,0,.87-2.08,2.64,2.64,0,0,0,0-.29A2.85,2.85,0,0,0,41.71,73.09ZM1.88,41l.17.16.05,0,.17.12.07.05.15.09a3.16,3.16,0,0,0,.9.34l.23,0h.67l.23,0a3.34,3.34,0,0,0,.91-.34l.13-.09.09-.05.16-.12.05,0L6,41l0,0,.15-.16,0-.06.12-.16a.56.56,0,0,1,0-.08,1,1,0,0,0,.08-.14,3,3,0,0,0,.35-.91l0-.22a.07.07,0,0,1,0,0,2.72,2.72,0,0,0,0-.28h0A32,32,0,0,1,22.26,11.66V18.4a2.94,2.94,0,0,0,2.95,2.94h0a3,3,0,0,0,3-2.95V9.77a8.65,8.65,0,0,0-2.54-6.19A8.87,8.87,0,0,0,19.33,1H10.75a3,3,0,0,0,0,5.9h8A37.73,37.73,0,0,0,1,38.88H1a2.83,2.83,0,0,0,0,.29A2.89,2.89,0,0,0,1.88,41ZM38.66,55.11a19.67,19.67,0,0,1-6.14-.88L25.08,57.5A3,3,0,0,1,21.19,56a3,3,0,0,1,0-2.29l2.5-6.15a15.58,15.58,0,0,1-2.71-8.73c0-9.07,8-16.44,17.72-16.44s17.71,7.36,17.73,16.41a15.65,15.65,0,0,1-5.3,11.67A18.41,18.41,0,0,1,38.66,55.11Zm-5.07-6.77a12.91,12.91,0,0,0,5.07.88c6.51,0,11.81-4.68,11.82-10.43S45.17,28.27,38.66,28.27,26.85,33,26.85,38.81a9.71,9.71,0,0,0,2.41,6.38,3,3,0,0,1,.49,3l-.39,1,1.88-.83a3,3,0,0,1,2.35,0Z"/></g></g></svg>