<svg xmlns="http://www.w3.org/2000/svg" viewBox="0 0 94.77 100.95"><defs><style>.cls-1{fill:#00071f;stroke:#fff;stroke-width:4.25px;}</style></defs><title>Märkte</title><g id="Ebene_2" data-name="Ebene 2"><g id="Ebene_1-2" data-name="Ebene 1"><path id="Markt_Kundengruppe" data-name="Markt Kundengruppe" class="cls-1" d="M85.47,60.26V38.2a3.82,3.82,0,0,0-.31-1.49,3.66,3.66,0,0,0-3.56-2.85,3.69,3.69,0,0,1-3.39-3.93,3.64,3.64,0,0,1,3.67-3.63,3.68,3.68,0,0,1,3.4,3.78,3.68,3.68,0,1,0,7.36,0c-.13-6.38-5.06-11.45-11-11.33A10.85,10.85,0,0,0,73.91,22L58.39,14.26c0-.26,0-.53,0-.8C58.18,7,53.05,1.88,47,2.13c-5.76.24-10.38,5.18-10.61,11.33,0,.3,0,.59,0,.88L20.8,21.91a10.86,10.86,0,0,0-7.64-3.16c-6-.12-10.91,4.95-11,11.33A11.31,11.31,0,0,0,9.3,40.69V60.26A11.31,11.31,0,0,0,2.13,70.87c.12,6.38,5.06,11.45,11,11.33a10.84,10.84,0,0,0,7.74-3.26l15.49,7.61c0,.31,0,.62,0,.94.13,6.38,5.06,11.45,11,11.33a3.64,3.64,0,0,0,3.67-3.63,3.69,3.69,0,0,0-3.39-3.93h-.28A3.68,3.68,0,0,1,44,87.34a3.54,3.54,0,1,1,7.08.15,3.68,3.68,0,1,0,7.35,0c0-.34,0-.68,0-1L73.93,79a10.84,10.84,0,0,0,7.68,3.2,3.63,3.63,0,0,0,3.67-3.62,3.68,3.68,0,0,0-3.39-3.93h-.28a3.68,3.68,0,0,1-3.4-3.93,3.54,3.54,0,1,1,7.08.15,3.68,3.68,0,1,0,7.35,0A11.31,11.31,0,0,0,85.47,60.26ZM47.38,9.69a3.73,3.73,0,0,1,3.68,3.77,3.68,3.68,0,1,1-7.36,0A3.74,3.74,0,0,1,47.38,9.69ZM13.16,26.3a3.64,3.64,0,0,1,3.68,3.63,3.69,3.69,0,0,1-3.39,3.93h-.29a3.64,3.64,0,0,1-3.67-3.63,3.69,3.69,0,0,1,3.39-3.93Zm0,48.35A3.64,3.64,0,0,1,9.49,71a3.69,3.69,0,0,1,3.39-3.93h.28a3.64,3.64,0,0,1,3.68,3.63,3.7,3.7,0,0,1-3.39,3.93Zm57.4-3.78a12.44,12.44,0,0,0,.08,1.37L55.31,79.61a10.83,10.83,0,0,0-15.9,0l-15.28-7.5c0-.43.07-.86.07-1.29a11.34,11.34,0,0,0-7.54-10.75V40.82A11.32,11.32,0,0,0,24.2,30.08a11.17,11.17,0,0,0-.1-1.42l15.26-7.42a10.82,10.82,0,0,0,16,0l.06-.07,15.2,7.55a12,12,0,0,0-.08,1.34,11.35,11.35,0,0,0,7.55,10.75v19.3A11.31,11.31,0,0,0,70.56,70.87ZM58.23,43.79V40.66a11,11,0,1,0-22.07,0V43.8a9.46,9.46,0,0,0-5.34,8.56V65.77a3.73,3.73,0,0,0,3.68,3.78H59.89a3.72,3.72,0,0,0,3.68-3.78V52.36A9.47,9.47,0,0,0,58.23,43.79Zm-11-6.72a3.63,3.63,0,0,1,3.68,3.59v2.26H43.52V40.66A3.63,3.63,0,0,1,47.2,37.07Zm9,24.92h-18V52.36A1.88,1.88,0,0,1,40,50.47H54.37a1.87,1.87,0,0,1,1.84,1.89Z"/></g></g></svg>