<svg xmlns="http://www.w3.org/2000/svg" viewBox="0 0 84.33 84.33"><defs><style>.cls-1{fill:#00071f;stroke:#fff;stroke-width:2.5px;}</style></defs><title>Qualität</title><g id="Ebene_2" data-name="Ebene 2"><g id="Ebene_1-2" data-name="Ebene 1"><path id="Qualität" class="cls-1" d="M83.08,10.84V23.63a3.19,3.19,0,1,1-6.38,0h0V12.16L28.87,60.09a3.2,3.2,0,1,1-4.51-4.53h0L72.19,7.64H60.59a3.2,3.2,0,0,1,0-6.39H73.51A9.59,9.59,0,0,1,83.08,10.84ZM78.85,33.41A3.2,3.2,0,0,0,76.16,37a35.18,35.18,0,0,1,.38,5.12,34.39,34.39,0,0,1-5.85,19.16,3.2,3.2,0,0,0,5.19,3.73l.11-.17a40.78,40.78,0,0,0,6.92-22.72,42.39,42.39,0,0,0-.44-6.06A3.19,3.19,0,0,0,78.85,33.41ZM59.91,71.71A34.5,34.5,0,1,1,42.08,7.64a33.83,33.83,0,0,1,5.41.43,3.2,3.2,0,0,0,1-6.32,41.42,41.42,0,0,0-6.4-.5A40.87,40.87,0,0,0,1.25,42.16h0a40.82,40.82,0,0,0,62,35,3.19,3.19,0,0,0-3.3-5.47ZM29,23a8,8,0,1,1-8,8h0a8,8,0,0,1,8-8Zm0,6.4a1.6,1.6,0,1,0,1.6,1.6,1.59,1.59,0,0,0-1.6-1.6h0Zm26.31,32a8,8,0,1,1,8-8h0A8,8,0,0,1,55.32,61.34Zm0-6.39a1.6,1.6,0,1,0-1.6-1.6h0a1.6,1.6,0,0,0,1.6,1.6Z"/></g></g></svg>