<svg xmlns="http://www.w3.org/2000/svg" viewBox="0 0 86.47 86.48"><defs><style>.cls-1{fill:#00071f;stroke:#fff;stroke-width:3px;}</style></defs><title>Wissen</title><g id="Ebene_2" data-name="Ebene 2"><g id="Ebene_1-2" data-name="Ebene 1"><path id="Wissen" class="cls-1" d="M85,14.42C84.89,6.69,79,1.51,70.28,1.51A16.55,16.55,0,0,0,60,4.69a12.23,12.23,0,0,0-4.7,9.72v.26c.06,4.12,2.11,7.47,3.92,10.44,1.5,2.46,2.93,4.78,2.93,7.06v4a6.31,6.31,0,0,0,4.9,6.16,3.26,3.26,0,0,0,6.49,0,6.33,6.33,0,0,0,4.91-6.15v-4c0-2.15,1.22-4.2,2.64-6.57,1.8-3,3.83-6.42,3.88-11v-.23Zm-13,18.33V36H68.67V32.75Zm3.56-10.49a40.33,40.33,0,0,0-2.17,4h-6a40.56,40.56,0,0,0-2.5-4.52c-1.52-2.48-3-4.83-3-7.19C61.85,9.73,66.2,8,70.28,8c2.45,0,8.14.63,8.17,6.51C78.44,17.33,77.07,19.62,75.49,22.26Zm4.39,51.33a9.46,9.46,0,0,1-7.32,11.19,9.09,9.09,0,0,1-2,.2H11A9.45,9.45,0,0,1,1.5,75.55a10,10,0,0,1,.2-2A39.79,39.79,0,0,1,28.05,44.11,21,21,0,0,1,40.68,6.39a20.68,20.68,0,0,1,7.46,1.38,3.25,3.25,0,1,1-2.34,6.07,14,14,0,0,0-5.12-.94A14.48,14.48,0,1,0,50.47,38a3.25,3.25,0,1,1,4.45,4.75h0c-.49.46-1,.89-1.53,1.3A39.84,39.84,0,0,1,74,59.64a3.26,3.26,0,0,1-5.41,3.63A33.49,33.49,0,0,0,8.09,74.92a2.94,2.94,0,0,0,2.27,3.49,3.15,3.15,0,0,0,.61.06H70.61a2.93,2.93,0,0,0,3-2.92,3.36,3.36,0,0,0-.06-.63,3.26,3.26,0,0,1,6.38-1.33Z"/></g></g></svg>