<svg xmlns="http://www.w3.org/2000/svg" viewBox="0 0 103.44 95.97"><defs><style>.cls-1{stroke:#fff;stroke-width:4.5px;}</style></defs><title>Zeitaufwand</title><g id="Ebene_2" data-name="Ebene 2"><g id="Ebene_1-2" data-name="Ebene 1"><g id="passage-of-time"><g id="Layer_1" data-name="Layer 1"><g id="Gruppe_119" data-name="Gruppe 119"><path id="Pfad_2382" data-name="Pfad 2382" class="cls-1" d="M101,40.83a2.07,2.07,0,0,0-1.88-1.2H93a45.75,45.75,0,1,0-5.36,31.21,4.16,4.16,0,0,0-7.2-4.16,37.49,37.49,0,1,1,4-27.05H78.32a2.09,2.09,0,0,0-2.09,2.08,2.07,2.07,0,0,0,.49,1.34l10.4,12.48a2.08,2.08,0,0,0,2.93.26,2.23,2.23,0,0,0,.27-.26l10.4-12.48A2.09,2.09,0,0,0,101,40.83Z"/><path id="Pfad_2383" data-name="Pfad 2383" class="cls-1" d="M48,12.59a4.16,4.16,0,0,0-4.16,4.16h0V42A7.28,7.28,0,0,0,48,55.24a7.41,7.41,0,0,0,3.07-.7L65.5,62.89a4.21,4.21,0,0,0,2.08.56,4.16,4.16,0,0,0,2.08-7.76L55.17,47.32A7.22,7.22,0,0,0,52.12,42V16.75A4.16,4.16,0,0,0,48,12.59Zm0,38.48A3.12,3.12,0,1,1,51.08,48h0A3.12,3.12,0,0,1,48,51.07Z"/></g></g></g></g></g></svg>