<svg xmlns="http://www.w3.org/2000/svg" width="31.236" height="29.005" viewBox="0 0 31.236 29.005"><g transform="translate(1 1)"><path d="M10.266,4.507c3.8,0,7.031,1.962,7.031,5.766V11.4h0V31.359a.138.138,0,0,1-.267.049V31.4a6.612,6.612,0,0,0-5.787-4.957A8.925,8.925,0,0,0,4.7,29.053a.758.758,0,0,1-.464.2H3.916c-.26,0-.534-.19-.534-.429V8.452C3.375,6.195,6.462,4.507,10.266,4.507Z" transform="translate(-3.382 -4.5)" fill="none" stroke="#935bd9" stroke-width="2"/><path d="M25.734,4.5c-3.8,0-7.031,1.962-7.031,5.766v1.125h0V31.352a.138.138,0,0,0,.267.049v-.007a6.68,6.68,0,0,1,5.787-4.957A8.909,8.909,0,0,1,31.3,29.046a.8.8,0,0,0,.464.2h.316c.26,0,.534-.19.534-.429V8.438C32.625,6.188,29.538,4.5,25.734,4.5Z" transform="translate(-3.382 -4.5)" fill="none" stroke="#935bd9" stroke-width="2"/></g></svg>