<svg id="Ebene_1" data-name="Ebene 1" xmlns="http://www.w3.org/2000/svg" viewBox="0 0 283.46 283.46"><defs><style>.cls-1{fill:#fff;}.cls-2{fill:#1f2345;}</style></defs><title>branchen</title><path id="Pfad_2460-2" data-name="Pfad 2460-2" class="cls-1" d="M141.73,0A141.73,141.73,0,1,1,0,141.73,141.73,141.73,0,0,1,141.73,0Z"/><g id="analytics"><g id="Gruppe_225" data-name="Gruppe 225"><g id="Gruppe_224" data-name="Gruppe 224"><path id="Pfad_2439" data-name="Pfad 2439" class="cls-2" d="M141.92,147.77a3.14,3.14,0,0,1-3.16-3V80.51A63.81,63.81,0,0,0,96.28,99.28a64.44,64.44,0,1,0,109.93,48.5H141.92Z"/></g></g><g id="Gruppe_228" data-name="Gruppe 228"><g id="Gruppe_227" data-name="Gruppe 227"><g id="Gruppe_226" data-name="Gruppe 226"><path id="Pfad_2440" data-name="Pfad 2440" class="cls-2" d="M190.3,71.18,162.54,99v21.33L202.82,80A66.83,66.83,0,0,0,190.3,71.18Z"/><path id="Pfad_2441" data-name="Pfad 2441" class="cls-2" d="M162.54,63.41V90.58l22.15-22.15A66,66,0,0,0,162.54,63.41Z"/><path id="Pfad_2442" data-name="Pfad 2442" class="cls-2" d="M218.62,102.32l-22.44,22.45h27.61A63.24,63.24,0,0,0,218.62,102.32Z"/><path id="Pfad_2443" data-name="Pfad 2443" class="cls-2" d="M206.92,84.26l-40.51,40.51h21.33l28.09-28.1A65.26,65.26,0,0,0,206.92,84.26Z"/></g></g></g></g></svg>