<svg xmlns="http://www.w3.org/2000/svg" width="36.544" height="19.215" viewBox="0 0 36.544 19.215"><g transform="translate(0 0)"><path d="M34.642,123.095l-2.936-1.34-2.591-4.134a4.082,4.082,0,0,0-3.482-1.917H14.6a4.118,4.118,0,0,0-3.272,1.61l-3.347,4.381L2.4,123.222A3.271,3.271,0,0,0,0,126.375v2.134a3.27,3.27,0,0,0,3.243,3.3h.479a4.158,4.158,0,0,0,8.05,0H24.353a4.158,4.158,0,0,0,8.05,0h.9a3.27,3.27,0,0,0,3.243-3.3v-2.434A3.263,3.263,0,0,0,34.642,123.095Zm-26.9,10.312a2.658,2.658,0,1,1,2.658-2.658A2.659,2.659,0,0,1,7.743,133.406Zm20.631,0a2.658,2.658,0,1,1,2.658-2.658A2.659,2.659,0,0,1,28.374,133.406Zm4.927-3.1h-.794a4.159,4.159,0,0,0-8.267,0H11.877a4.159,4.159,0,0,0-8.267,0H3.235a1.768,1.768,0,0,1-1.745-1.8v-2.134a1.764,1.764,0,0,1,1.3-1.715l5.834-1.6a.731.731,0,0,0,.4-.27l3.49-4.576A2.647,2.647,0,0,1,14.6,117.2H25.633a2.58,2.58,0,0,1,2.217,1.213l2.711,4.328a.738.738,0,0,0,.322.285l3.13,1.43a1.763,1.763,0,0,1,1.026,1.618v2.434h.007A1.768,1.768,0,0,1,33.3,130.306Z" transform="translate(0 -115.703)" fill="#0a6633"/></g></svg>