<svg xmlns="http://www.w3.org/2000/svg" width="27.018" height="24.317" viewBox="0 0 27.018 24.317"><path d="M27.013,11.106c-.045-.77-.961-1.373-2.794-1.832a1.015,1.015,0,0,0,.1-.421V5.7h-.008C24.148,3.077,13.393,3,12.158,3S.169,3.077.008,5.7H0V5.76H0V8.854c0,.856,1.106,1.525,2.749,2.024a.988.988,0,0,0-.041.228H2.7v.059h0v3.088C.932,14.708.048,15.3,0,16.059H0v.059H0v3.093c0,.6.539,1.1,1.418,1.522a.992.992,0,0,0-.06.28H1.351v.059h0v3.093c0,1.5,3.376,2.428,7.123,2.862a.414.414,0,0,0,.082.017c.009,0,.016,0,.024,0,.722.082,1.456.145,2.183.19a.372.372,0,0,0,.045.009c.009,0,.015,0,.023,0,.922.056,1.83.084,2.678.084s1.756-.028,2.678-.085c.008,0,.015,0,.023,0s.029-.008.045-.009c.726-.045,1.46-.109,2.183-.19.009,0,.016,0,.024,0a.414.414,0,0,0,.082-.017c3.747-.434,7.119-1.364,7.123-2.863v-3.15H25.66c-.032-.552-.5-1.013-1.432-1.4a1.007,1.007,0,0,0,.088-.405V16.266c1.617-.5,2.7-1.162,2.7-2.01v-3.15Zm-3.646,8.25-.154.135a4.029,4.029,0,0,1-1.149.621V17.965a6.7,6.7,0,0,0,1.351-.62v1.863A.286.286,0,0,1,23.367,19.356ZM13.3,21.448l-.2,0c-.161,0-.326,0-.489.005V19.209l.372-.005h.072q.68-.013,1.358-.043v2.248l-.291.014C13.848,21.433,13.574,21.442,13.3,21.448Zm-1.966.006q-.309-.005-.616-.015l-.076,0q-.368-.012-.731-.03V19.159q.677.032,1.358.043h.071l.372.005V21.46l-.262,0ZM3.2,20.428l-.044-.013V18.24c.421.113.873.217,1.351.311v2.2q-.62-.132-1.142-.275Zm9.492,3.729.372.005v2.251q-.933-.009-1.8-.052V24.113q.677.032,1.358.043Zm1.715,0q.68-.013,1.358-.043v2.248q-.867.043-1.8.052V24.162l.372-.005Zm3.61-.2v2.236q-.649.068-1.351.118V24.061C17.118,24.031,17.569,23.995,18.012,23.952Zm.9-.1q.7-.084,1.351-.19v2.211q-.636.112-1.351.206Zm2.252-.351c.478-.094.93-.2,1.351-.311v2.175c-.4.116-.853.228-1.351.334Zm-15.31,0v2.2c-.5-.106-.95-.218-1.351-.334V23.193C4.924,23.306,5.376,23.41,5.854,23.5Zm.9.161q.654.106,1.351.19v2.227q-.714-.094-1.351-.206Zm2.252.287c.443.043.894.079,1.351.109v2.246q-.7-.049-1.351-.118ZM7.889,21.259l-.137-.014-.1-.01V19c.443.043.894.079,1.351.109v2.244C8.628,21.325,8.254,21.295,7.889,21.259ZM6.755,18.9v2.227q-.714-.094-1.351-.206V18.711Q6.057,18.817,6.755,18.9Zm8.856,2.43-.3.023V19.108c.457-.03.908-.066,1.351-.109v2.236c-.278.029-.563.057-.855.081Zm1.952-.2V18.9q.7-.084,1.351-.19v2.211Q18.277,21.035,17.562,21.129Zm2.252-2.578c.478-.094.93-.2,1.351-.311v2.175c-.4.116-.853.228-1.351.334Zm-6.158-2.057c-.339-.009-.67-.022-.995-.037l-.052,0V14.206q.677.032,1.358.043h.071l.372.005V16.5c-.219,0-.44,0-.654-.008Zm-10.5-6.435V7.883c.421.113.873.217,1.351.311v2.2l-.167-.035c-.24-.053-.473-.108-.7-.166C3.47,10.147,3.308,10.1,3.152,10.058Zm8.184-1.212.372.005V11.1c-.606-.006-1.209-.022-1.8-.051V8.8q.677.032,1.358.043Zm1.715,0q.68-.013,1.358-.043v2.247l-.227.013h-.019c-.3.014-.61.023-.922.031l-.146,0c-.16,0-.324,0-.487.005V8.852l.372-.005Zm10.261.226-.013,0-.164.127a4.38,4.38,0,0,1-1.071.553V7.607a6.7,6.7,0,0,0,1.351-.62V8.851A.354.354,0,0,1,23.313,9.071Zm-5.751,1.7V8.544q.7-.084,1.351-.19v2.207C18.486,10.637,18.036,10.707,17.562,10.769Zm2.252-.381V8.194c.478-.094.93-.2,1.351-.311v2.171C20.761,10.171,20.306,10.283,19.813,10.388ZM16.661,8.641v2.234q-.652.069-1.351.119V8.751C15.767,8.721,16.218,8.684,16.661,8.641ZM7.655,10.876V8.641c.443.043.894.079,1.351.109v2.242C8.548,10.96,8.1,10.922,7.655,10.876Zm-.9-2.332v2.225c-.089-.012-.182-.021-.27-.033l-.169-.025q-.39-.056-.764-.119L5.4,10.566V8.355Q6.057,8.46,6.755,8.544ZM11.6,16.392l-.182-.014q-.432-.034-.844-.075l-.177-.018-.036,0V14.045c.443.043.894.079,1.351.109V16.4Zm-2.975-.336c-.178-.028-.346-.059-.516-.089V13.758q.654.106,1.351.19v2.227c-.276-.036-.545-.074-.8-.115ZM7.2,13.6v2.194q-.746-.16-1.351-.338V13.286C6.275,13.4,6.727,13.5,7.2,13.6Zm-2.252-.586V15.15a2.809,2.809,0,0,1-1.313-.8l-.03-.05a.285.285,0,0,1-.008-.043V12.391A6.7,6.7,0,0,0,4.953,13.011Zm10.8,1.238q.68-.013,1.358-.043v2.246c-.592.029-1.193.045-1.8.052V14.256l.372-.005Zm5.819,1.728c-.2.034-.4.068-.6.1l-.358.052c-.114.016-.232.03-.348.045V13.948q.7-.084,1.351-.19v2.211Zm-3.049.385c-.168.014-.341.023-.512.035V14.155c.457-.03.908-.066,1.351-.109v2.234c-.262.027-.523.055-.792.077Zm5.146-.844c-.224.063-.462.121-.7.178-.112.026-.227.052-.344.077l-.107.022V13.6c.478-.094.93-.2,1.351-.311v2.175Zm2.443-4.382c-.041.306-.734.712-1.971,1.095h0A30.225,30.225,0,0,1,16.9,13.312l-.488.019L16,13.343c-.373.008-.751.014-1.141.014s-.768-.006-1.141-.014l-.407-.012c-.165,0-.326-.012-.488-.019a30.221,30.221,0,0,1-7.245-1.083h0c-1.227-.379-1.919-.783-1.97-1.087a.106.106,0,0,1,.008-.027l.1.022c.176.042.357.082.54.121.895.193,1.886.351,2.943.471l.009,0h0c.72.082,1.466.146,2.233.192.006,0,.011,0,.017,0l.009,0q.827.049,1.676.069c.346.009.686.013,1.017.013.236,0,.479,0,.723-.007A34.482,34.482,0,0,0,21.3,10.957c.1-.027.192-.056.286-.084l.171-.052c.163-.052.319-.106.47-.162l.077-.03c.127-.048.25-.1.367-.149l.1-.044c.125-.056.245-.114.357-.174.05-.027.094-.054.141-.081s.108-.063.158-.095c.028-.018.062-.035.089-.053C25.53,10.47,26.061,10.948,26.113,11.135ZM12.158,3.9c7.425,0,11.181,1.169,11.251,1.84-.054.3-.746.707-1.97,1.085h0a30.225,30.225,0,0,1-7.245,1.083l-.488.019-.407.012c-.373.009-.751.014-1.141.014s-.768-.006-1.141-.014l-.407-.012c-.165,0-.326-.012-.488-.019A30.221,30.221,0,0,1,2.877,6.825h0C1.653,6.447.962,6.045.907,5.741.978,5.07,4.733,3.9,12.158,3.9ZM.9,8.852V6.988a6.7,6.7,0,0,0,1.351.62V9.763C1.376,9.435.9,9.106.9,8.852Zm2.181,6.232c.007.007.017.014.024.021a7.66,7.66,0,0,0,3.482,1.476l.112.025q.175.039.355.077a34.729,34.729,0,0,0,5.1.647h0q.915.053,1.87.071c.282.006.559.009.83.009.311,0,.63,0,.954-.011.589-.012,1.169-.036,1.742-.07h.006l.011,0a34.827,34.827,0,0,0,5.2-.666,8.158,8.158,0,0,1-1.332.521h0a31.073,31.073,0,0,1-7.782,1.1l-.3.009-.335.007c-.283,0-.568.009-.861.009-.39,0-.768-.006-1.141-.014l-.407-.012c-.165,0-.326-.012-.488-.019a30.221,30.221,0,0,1-7.245-1.083h0c-1.238-.383-1.931-.79-1.971-1.1C.956,15.918,1.411,15.494,3.082,15.084ZM.9,19.209V17.345a6.7,6.7,0,0,0,1.351.62v2.148l-.257-.1-.005.005C1.282,19.724.9,19.436.9,19.209Zm1.351,4.953V22.3a6.7,6.7,0,0,0,1.351.62v2.156C2.727,24.746,2.252,24.416,2.252,24.163Zm21.164.911V22.918a6.7,6.7,0,0,0,1.351-.62v1.863C24.766,24.415,24.292,24.745,23.416,25.074Zm1.345-4.027c-.049.3-.741.709-1.971,1.089h0a30.225,30.225,0,0,1-7.245,1.083l-.488.019-.407.012c-.373.008-.751.014-1.141.014s-.769-.006-1.142-.014l-.4-.012c-.166-.005-.328-.012-.491-.019a30.225,30.225,0,0,1-7.245-1.083h0c-1.191-.368-1.879-.759-1.966-1.06.134.047.273.092.416.137l.043.013q.182.056.373.109l.146.04.22.057a32.851,32.851,0,0,0,5.994.852h0c.7.041,1.411.067,2.131.076.192,0,.382.005.569.005.248,0,.5,0,.759-.008.657-.011,1.305-.035,1.939-.073h.009c.772-.046,1.52-.113,2.238-.195h.008c.01,0,.018,0,.028-.006.8-.092,1.558-.206,2.262-.338.145-.027.288-.054.429-.082l.095-.019A12.1,12.1,0,0,0,23.2,20.579c.043-.023.084-.048.125-.072s.1-.06.144-.091.093-.055.133-.083C24.487,20.65,24.732,20.934,24.761,21.047Zm.006-5.88V13.011a6.7,6.7,0,0,0,1.351-.62v1.863C26.117,14.509,25.643,14.838,24.767,15.167Z" transform="translate(0 -3)" fill="#dfd200"/></svg>