<svg xmlns="http://www.w3.org/2000/svg" width="21.925" height="35.194" viewBox="0 0 21.925 35.194"><path d="M107.75,29.532l-6.086-18.338V3.9A1.959,1.959,0,0,0,101.43,0h-8.84a1.959,1.959,0,0,0-.233,3.9v7.29L86.272,29.532a4.306,4.306,0,0,0,4.087,5.662h13.3a4.306,4.306,0,0,0,4.087-5.662ZM92.174,1.959a.418.418,0,0,1,.417-.417h8.84a.417.417,0,0,1,0,.834h-8.84A.418.418,0,0,1,92.174,1.959ZM105.9,32.506a2.735,2.735,0,0,1-2.241,1.146h-13.3a2.764,2.764,0,0,1-2.623-3.634L93.86,11.561a.772.772,0,0,0,.039-.243v-7.4h6.222v7.4a.772.772,0,0,0,.039.243l6.125,18.457A2.734,2.734,0,0,1,105.9,32.506Z" transform="translate(-86.048)" fill="#d8459a"/><path d="M129.979,247.334a.771.771,0,0,0-.265-.371,5.153,5.153,0,0,0-2.908-1.02,4.85,4.85,0,0,0-2.749.979,2.941,2.941,0,0,1-3.478.149.771.771,0,0,0-1.16.4l-3.241,9.768a1.994,1.994,0,0,0,1.892,2.621h13.3a1.993,1.993,0,0,0,1.891-2.621Zm1.76,10.793h0a.422.422,0,0,1-.365.187h-13.3a.424.424,0,0,1-.367-.19.42.42,0,0,1-.062-.4l2.958-8.913a4.477,4.477,0,0,0,4.419-.681,3.306,3.306,0,0,1,1.894-.646,3.354,3.354,0,0,1,1.686.587l3.2,9.653A.422.422,0,0,1,131.74,258.127Z" transform="translate(-113.759 -226.976)" fill="#d8459a"/></svg>