<svg xmlns="http://www.w3.org/2000/svg" width="38.349" height="26.144" viewBox="0 0 38.349 26.144"><path d="M31.352,637.626a3.541,3.541,0,0,0-2.5,1.031,3.47,3.47,0,0,0,0,4.966,3.554,3.554,0,0,0,2.5,1.031,3.514,3.514,0,0,0,0-7.028Zm0,5.466a1.952,1.952,0,1,1,0-3.9,1.952,1.952,0,0,1,0,3.9Zm.906-17.172a.759.759,0,0,0-.523-.2H27.729a.783.783,0,0,0-.781.781v6.4a.783.783,0,0,0,.781.781h6.356a.783.783,0,0,0,.781-.781v-4.287a.781.781,0,0,0-.258-.578Zm1.046,6.2H28.51v-4.849h2.92l1.874,1.687Zm-21.021,5.505a3.541,3.541,0,0,0-2.5,1.031,3.47,3.47,0,0,0,0,4.966,3.554,3.554,0,0,0,2.5,1.031,3.514,3.514,0,0,0,0-7.028Zm0,5.466a1.952,1.952,0,1,1,0-3.9,1.952,1.952,0,0,1,0,3.9Zm-5.208-4.506H5.505V636.51a.781.781,0,1,0-1.562,0v2.858a.783.783,0,0,0,.781.781h2.35a.781.781,0,0,0,0-1.562Zm3.959-4.256a.783.783,0,0,0-.781-.781H.781a.781.781,0,0,0,0,1.562h9.472A.778.778,0,0,0,11.034,634.331Zm-8.668-2.819,9.472.055a.788.788,0,0,0,.789-.773.773.773,0,0,0-.773-.789l-9.472-.055H2.374a.781.781,0,0,0-.008,1.562Zm1.593-3.545h9.472a.781.781,0,0,0,0-1.562H3.959a.781.781,0,0,0,0,1.562Zm34.1-1.054h0l-5.591-4.631a.769.769,0,0,0-.5-.18H25.394v-2.811a.783.783,0,0,0-.781-.781H4.724a.783.783,0,0,0-.781.781v5.716a.781.781,0,1,0,1.562,0v-4.935H23.84v18.515h-6.4a.781.781,0,0,0,0,1.562h9.535a.781.781,0,0,0,0-1.562H25.4V623.664H31.7l5.091,4.217-.055,10.69H35.92a.781.781,0,1,0,0,1.562h1.585a.776.776,0,0,0,.781-.773l.062-11.838A.825.825,0,0,0,38.06,626.912Z" transform="translate(0 -618.51)" fill="#8b6c31"/></svg>