<svg xmlns="http://www.w3.org/2000/svg" viewBox="0 0 1215 638">
    <defs>
        <style>
            .cls-1,
            .cls-11,
            .cls-2,
            .cls-7,
            .cls-8 {
                fill: none;
            }

            .cls-1 {
                stroke: #d0cfd0;
            }

            .cls-2 {
                stroke: #d3d3d3;
            }

            .cls-3 {
                fill: #fff;
            }

            .cls-4,
            .cls-5,
            .cls-6 {
                isolation: isolate;
            }

            .cls-5 {
                font-size: 17px;
                font-family: OpenSans-Regular, Open Sans;
            }

            .cls-5,
            .cls-6 {
                fill: #0a0f1c;
            }

            .cls-6 {
                font-size: 30px;
                font-family: Orbitron-Regular, Orbitron;
            }

            .cls-8 {
                stroke: #ffd577;
                stroke-width: 4px;
            }

            .cls-9 {
                fill: #ffd577;
            }

            .cls-10 {
                fill: #c8dae3;
            }

            .cls-11 {
                stroke: #717070;
            }

            .cls-12 {
                stroke: #fff;
                stroke-width: 3px;
            }
        </style>
    </defs>
    <title>Element 1</title>
    <g id="Ebene_2" data-name="Ebene 2">
        <g id="Ebene_1-2" data-name="Ebene 1">
            <path id="Path_2452" data-name="Path 2452" class="cls-1" d="M654.25,171.19,859.11,67.69l56.18-55" />
            <path id="Path_2453" data-name="Path 2453" class="cls-2" d="M640,188.47l-199.63-114" />
            <path id="Path_2455" data-name="Path 2455" class="cls-1"
                d="M478,468,663.55,584.54,834.92,468,1108,412.14" />
            <path id="Path_2456" data-name="Path 2456" class="cls-1" d="M670,582l-87,48.64" />
            <path id="Path_2454" data-name="Path 2454" class="cls-2"
                d="M86.5,97.5,261,193.11,440.78,437.2,640,184,821.72,451.33,1003,193.11l105,208.1,8.71,122.9v67l87.77,26" />
            <path id="Path_2451" data-name="Path 2451" class="cls-2"
                d="M10.5,496.5l38.76-45.56L140,362.56,277,178.29,446,71.87,561.66,11.3" />
            <g id="Group_230" data-name="Group 230">
                <ellipse id="Ellipse_375-2" data-name="Ellipse 375-2" class="cls-3" cx="995.28" cy="188.47" rx="113.28"
                    ry="115.47" />
            </g>
            <g id="Group_231" data-name="Group 231">
                <ellipse id="Ellipse_376-2" data-name="Ellipse 376-2" class="cls-3" cx="633.67" cy="188.9" rx="112.48"
                    ry="115.41" />
            </g>
            <g id="Group_233" data-name="Group 233">
                <ellipse id="Ellipse_377-2" data-name="Ellipse 377-2" class="cls-3" cx="820.95" cy="439.01" rx="113"
                    ry="116" />
            </g>
            <g id="Group_234" data-name="Group 234">
                <ellipse id="Ellipse_378-2" data-name="Ellipse 378-2" class="cls-3" cx="446.94" cy="439.01" rx="113"
                    ry="116" />
            </g>
            <g id="Group_232" data-name="Group 232">
                <ellipse id="Ellipse_374-2" data-name="Ellipse 374-2" class="cls-3" cx="268.5" cy="188.5" rx="112.5"
                    ry="115.5" />
                <g id="Unzureichende_Breitbandversorgung" data-name="Unzureichende Breitbandversorgung" class="cls-4">
                    <text class="cls-5" transform="translate(208.29 160)">Unzureichende </text><text class="cls-5"
                        transform="translate(184.34 183)">Breitbandversorgung</text></g>
                <g class="cls-4"><text class="cls-6" transform="translate(226.59 240)">43 %</text></g>
            </g>
            <g id="Ellipse_474" data-name="Ellipse 474">
                <circle class="cls-7" cx="46.5" cy="452.5" r="24.5" />
                <circle class="cls-8" cx="46.5" cy="452.5" r="22.5" />
            </g>
            <g id="Ellipse_468" data-name="Ellipse 468">
                <circle class="cls-7" cx="857.5" cy="65.5" r="24.5" />
                <circle class="cls-8" cx="857.5" cy="65.5" r="22.5" />
            </g>
            <g id="Ellipse_470" data-name="Ellipse 470">
                <circle class="cls-7" cx="86.5" cy="97.5" r="24.5" />
                <circle class="cls-8" cx="86.5" cy="97.5" r="22.5" />
            </g>
            <g id="Ellipse_477" data-name="Ellipse 477">
                <circle class="cls-7" cx="1114.5" cy="521.5" r="24.5" />
                <circle class="cls-8" cx="1114.5" cy="521.5" r="22.5" />
            </g>
            <circle id="Ellipse_475" data-name="Ellipse 475" class="cls-9" cx="47" cy="453" r="15" />
            <circle id="Ellipse_469" data-name="Ellipse 469" class="cls-9" cx="858" cy="66" r="15" />
            <circle id="Ellipse_471" data-name="Ellipse 471" class="cls-9" cx="87" cy="98" r="15" />
            <circle id="Ellipse_478" data-name="Ellipse 478" class="cls-9" cx="1115" cy="522" r="15" />
            <circle id="Ellipse_476" data-name="Ellipse 476" class="cls-9" cx="10.5" cy="496.5" r="10.5" />
            <circle id="Ellipse_482" data-name="Ellipse 482" class="cls-9" cx="584.5" cy="627.5" r="10.5" />
            <circle id="Ellipse_465" data-name="Ellipse 465" class="cls-9" cx="915.5" cy="10.5" r="10.5" />
            <circle id="Ellipse_466" data-name="Ellipse 466" class="cls-9" cx="559.5" cy="10.5" r="10.5" />
            <circle id="Ellipse_481" data-name="Ellipse 481" class="cls-9" cx="1204.5" cy="617.5" r="10.5" />
            <circle id="Ellipse_480" data-name="Ellipse 480" class="cls-9" cx="1113.5" cy="592.5" r="10.5" />
            <circle id="Ellipse_472" data-name="Ellipse 472" class="cls-10" cx="140" cy="364" r="46" />
            <circle id="Ellipse_467" data-name="Ellipse 467" class="cls-10" cx="444" cy="73" r="46" />
            <circle id="Ellipse_479" data-name="Ellipse 479" class="cls-10" cx="670" cy="582" r="46" />
            <circle id="Ellipse_473" data-name="Ellipse 473" class="cls-10" cx="1114" cy="406" r="46" />
            <line id="Line_30" data-name="Line 30" class="cls-11" x1="176.5" y1="198.5" x2="361.5" y2="198.5" />
            <g id="passage-of-time">
                <g id="Layer_1" data-name="Layer 1">
                    <g id="Group_119" data-name="Group 119">
                        <path id="Path_2382" data-name="Path 2382" class="cls-12"
                            d="M502.8,433.6a2.09,2.09,0,0,0-1.89-1.2h-6.16a45.72,45.72,0,1,0-5.35,31.22,4.16,4.16,0,0,0-7.2-4.17,37.48,37.48,0,1,1,4-27h-6.12a2.08,2.08,0,0,0-1.6,3.41l10.4,12.48a2.09,2.09,0,0,0,2.93.27,1.72,1.72,0,0,0,.27-.27l10.4-12.48A2.09,2.09,0,0,0,502.8,433.6Z" />
                        <path id="Path_2383" data-name="Path 2383" class="cls-12"
                            d="M449.76,405.36a4.17,4.17,0,0,0-4.16,4.16h0v25.25A7.27,7.27,0,0,0,449.76,448a7,7,0,0,0,3.07-.7l14.48,8.35a4.07,4.07,0,0,0,2.07.56,4.15,4.15,0,0,0,2.08-7.76L457,440.09a7.27,7.27,0,0,0-3.05-5.32V409.52A4.18,4.18,0,0,0,449.76,405.36Zm0,38.49a3.12,3.12,0,1,1,3.12-3.12h0A3.13,3.13,0,0,1,449.76,443.85Z" />
                    </g>
                </g>
            </g>
            <g id="books">
                <path id="Path_2377" data-name="Path 2377"
                    d="M677,221.69l-16.08-57.92-13.86,3.85,1.53,5.52H633.17v-7.69H618.79v5.69H611V158.61H591.59v66.95h59.63v-43l11.92,42.94Zm-55.45-53.48h8.87V175h-8.87Zm0,18.27h8.87v31.36h-8.87Zm0-2.76v-1.58h8.87v1.58Zm0-4.34V177.8h8.87v1.58Zm-13.31,38.06h-13.9V166.7h13.9Zm0-56.07v2.57h-13.9v-2.57Zm-13.9,61.43v-2.61h13.9v2.61Zm24.45,0H611V173.9h7.79Zm2.76,0v-2.2h8.87v2.2Zm26.91,0H633.17V175.89h15.29Zm16.6-.66-9.7-34.93,8.55-2.37,9.7,34.93Zm-10.44-37.58-.76-2.74,8.55-2.37.76,2.74ZM659,167.17l2.67,9.62-8.54,2.38-2.68-9.63Z" />
                <rect id="Rectangle_3008" data-name="Rectangle 3008" x="636.38" y="178.88" width="8.88" height="2.76" />
                <rect id="Rectangle_3009" data-name="Rectangle 3009" x="636.38" y="183.72" width="8.88" height="2.76" />
                <rect id="Rectangle_3010" data-name="Rectangle 3010" x="636.38" y="188.57" width="8.88" height="2.76" />
                <rect id="Rectangle_3011" data-name="Rectangle 3011" x="636.38" y="216.63" width="8.88" height="2.76" />
                <rect id="Rectangle_3012" data-name="Rectangle 3012" x="613.51" y="199.44" width="2.76" height="4.64" />
                <rect id="Rectangle_3013" data-name="Rectangle 3013" x="613.51" y="206.7" width="2.76" height="10.5" />
                <rect id="Rectangle_3014" data-name="Rectangle 3014" x="613.51" y="184.29" width="2.76"
                    height="12.52" />
                <rect id="Rectangle_3015" data-name="Rectangle 3015" x="613.51" y="177.03" width="2.76" height="4.84" />
            </g>
            <g id="lock">
                <g id="Group_117" data-name="Group 117">
                    <g id="Group_116" data-name="Group 116">
                        <path id="Path_2378" data-name="Path 2378"
                            d="M991.26,199l-1.15,10.34a1.83,1.83,0,0,0,1.62,2h7.49a1.81,1.81,0,0,0,1.82-1.82,1.34,1.34,0,0,0,0-.2L999.88,199a7.2,7.2,0,0,0,3-5.87,7.29,7.29,0,0,0-14.58,0A7.2,7.2,0,0,0,991.26,199Zm4.31-9.51a3.63,3.63,0,0,1,1.58,6.91,1.82,1.82,0,0,0-1,1.85l1,9.47H994l1.06-9.47a1.84,1.84,0,0,0-1-1.85,3.63,3.63,0,0,1,1.57-6.91Z" />
                        <path id="Path_2379" data-name="Path 2379"
                            d="M1026.57,171.3h-5.47V164a25.53,25.53,0,0,0-51.05,0v7.3h-5.47a1.81,1.81,0,0,0-1.82,1.82h0V218.7a7.29,7.29,0,0,0,7.29,7.29h51.05a7.3,7.3,0,0,0,7.29-7.29V173.12a1.82,1.82,0,0,0-1.82-1.82ZM973.69,164a21.88,21.88,0,0,1,43.76,0v7.3h-3.65V164a18.23,18.23,0,1,0-36.46,0v7.3h-3.65Zm36.47,0v7.3H981V164a14.59,14.59,0,1,1,29.17,0Zm14.58,54.7a3.64,3.64,0,0,1-3.64,3.64H970.05a3.66,3.66,0,0,1-3.65-3.64V174.94h58.34Z" />
                    </g>
                </g>
            </g>
            <g id="money-bag">
                <g id="Group_118" data-name="Group 118">
                    <path id="Path_2380" data-name="Path 2380"
                        d="M824.26,449.48h-4.88a3.21,3.21,0,0,1-.11-6.41H828a2.13,2.13,0,1,0,.09-4.25h-4.11v-3a2.13,2.13,0,0,0-4.26-.09v3.06h-.3a7.46,7.46,0,0,0,0,14.92h4.88a3.21,3.21,0,0,1,0,6.41h-8.74a2.13,2.13,0,0,0,0,4.25h4.18v3a2.13,2.13,0,0,0,4.26.1V464.4h.4a7.46,7.46,0,0,0-.1-14.92Z" />
                    <path id="Path_2381" data-name="Path 2381"
                        d="M853.78,444.66a60.83,60.83,0,0,0-9.21-14.78,68.15,68.15,0,0,0-11.8-11.22l9-16.76a2.11,2.11,0,0,0-.39-2.52,10.58,10.58,0,0,0-7.58-3.4,17.74,17.74,0,0,0-6.88,1.81,13.15,13.15,0,0,1-4.32,1.29,2.48,2.48,0,0,1-1-.18c-4.22-1.54-7.47-2.5-10.6-2.5-4,0-7.36,1.6-10.67,5a2.13,2.13,0,0,0-.25,2.66l9.75,14.73a69.89,69.89,0,0,0-11.65,11.09A61.44,61.44,0,0,0,789,444.66a50.23,50.23,0,0,0-4.22,20.06,16.52,16.52,0,0,0,16.5,16.5H841.5a16.52,16.52,0,0,0,16.5-16.5A50.23,50.23,0,0,0,853.78,444.66Zm-49.14-41.48a9.23,9.23,0,0,1,6.38-2.55c2.51,0,5.35.85,9.12,2.25a7.17,7.17,0,0,0,2.47.42,15.65,15.65,0,0,0,5.95-1.61,14.39,14.39,0,0,1,5.25-1.49,5.64,5.64,0,0,1,3.42,1.17l-8.51,15.81H813.91ZM841.5,477H801.27A12.27,12.27,0,0,1,789,464.72c0-11.36,4.17-22.13,12.36-32a64.93,64.93,0,0,1,12-11.27h15.91a63.71,63.71,0,0,1,12,11.27c8.2,9.89,12.35,20.65,12.35,32A12.21,12.21,0,0,1,841.54,477h0Z" />
                </g>
            </g>
        </g>
    </g>
</svg>