<svg xmlns="http://www.w3.org/2000/svg" width="32.517" height="25.736" viewBox="0 0 32.517 25.736"><path d="M32.517,18.544a8.519,8.519,0,0,1-.446,2.714c-1.381,6.25-13.325,13.81-13.833,14.132a.98.98,0,0,1-.519.15.938.938,0,0,1-.521-.15,66.284,66.284,0,0,1-6.913-5.131.97.97,0,0,1,1.258-1.476,66.855,66.855,0,0,0,6.18,4.637C21.312,31.08,29.231,25.13,30.2,20.742a6.916,6.916,0,0,0,.368-2.2,6.841,6.841,0,0,0-3.54-5.991,6.976,6.976,0,0,0-8.563,1.626,1,1,0,0,1-1.494,0A6.985,6.985,0,0,0,8.41,12.552a6.838,6.838,0,0,0-3.547,5.99,6.752,6.752,0,0,0,.345,2.1,7.575,7.575,0,0,0,.77,1.915h5.658l1.943-4.465a.967.967,0,0,1,1.829.163l1.43,6.047,1.85-3.034a.966.966,0,0,1,.827-.464h3.511a.969.969,0,0,1,0,1.939H20.058l-2.787,4.578a.966.966,0,0,1-.824.466,1.006,1.006,0,0,1-.152-.011.971.971,0,0,1-.792-.733L14.2,21.537l-1.033,2.377a.966.966,0,0,1-.89.583H.969a.969.969,0,0,1,0-1.938H3.812a8.422,8.422,0,0,1-.466-1.4,8.17,8.17,0,0,1-.417-2.618,8.775,8.775,0,0,1,4.548-7.688,8.969,8.969,0,0,1,10.248,1.293,8.958,8.958,0,0,1,10.243-1.293A8.782,8.782,0,0,1,32.517,18.544Z" transform="translate(0 -9.803)" fill="#e33f3b"/></svg>