<svg xmlns="http://www.w3.org/2000/svg" width="31.34" height="27.92" viewBox="0 0 31.34 27.92"><g transform="translate(0 0)"><g transform="translate(0 0)"><path d="M29.448,27.937H1.892A1.894,1.894,0,0,0,0,29.829V48.855a1.894,1.894,0,0,0,1.892,1.892h9.442v1.377a2.291,2.291,0,0,1-2.289,2.289H6.965a.722.722,0,0,0,0,1.445H24.375a.722.722,0,0,0,0-1.445H22.294a2.291,2.291,0,0,1-2.289-2.289V50.747h9.442a1.894,1.894,0,0,0,1.892-1.892V29.829A1.894,1.894,0,0,0,29.448,27.937ZM11.992,54.412a3.714,3.714,0,0,0,.787-2.289V50.747h5.781v1.377a3.714,3.714,0,0,0,.787,2.289Zm17.9-5.557a.448.448,0,0,1-.447.447H1.892a.448.448,0,0,1-.447-.447v-3.8H29.9Zm0-5.242H1.445V29.829a.448.448,0,0,1,.447-.447H29.448a.448.448,0,0,1,.447.447V43.613Z" transform="translate(0 -27.937)" fill="#4da1b1"/></g></g><g transform="translate(14.89 18.463)"><g transform="translate(0 0)"><ellipse cx="0.78" cy="0.78" rx="0.78" ry="0.78" fill="#4da1b1"/></g></g><g transform="translate(10.57 4.766)"><g transform="translate(0 0)"><path d="M179.014,106.009a.723.723,0,0,0-1.022,0l-5.106,5.106a.723.723,0,0,0,1.022,1.022l5.106-5.106A.723.723,0,0,0,179.014,106.009Z" transform="translate(-172.674 -105.797)" fill="#4da1b1"/></g></g><g transform="translate(16.668 7.725)"><g transform="translate(0 0)"><path d="M275.567,154.348a.723.723,0,0,0-1.022,0l-2.034,2.034a.722.722,0,1,0,1.022,1.022l2.034-2.034A.723.723,0,0,0,275.567,154.348Z" transform="translate(-272.299 -154.136)" fill="#4da1b1"/></g></g></svg>