<svg xmlns="http://www.w3.org/2000/svg" width="22.738" height="32.687" viewBox="0 0 22.738 32.687"><path d="M73.94.446A.714.714,0,0,0,73.265,0H64a.692.692,0,0,0-.715.666V2.919H61.933V.666A.692.692,0,0,0,61.218,0H51.956a.713.713,0,0,0-.675.446.638.638,0,0,0,.229.741l6.471,4.806v6.024a.717.717,0,0,0,1.43,0V5.672a.65.65,0,0,0-.269-.521L54,1.332h6.5V3.585a.692.692,0,0,0,.715.666H64a.692.692,0,0,0,.715-.666V1.332h6.5L66.079,5.151a.65.65,0,0,0-.269.521v2.79L61.5,10.177a.65.65,0,0,0-.377.874.735.735,0,0,0,.938.351l4.745-1.888A.667.667,0,0,0,67.24,8.9V5.993l6.471-4.806A.639.639,0,0,0,73.94.446Z" transform="translate(-51.242)" fill="#6b6e72"/><path d="M130.286,118.985a.666.666,0,0,0-.629-.057l-7.293,3.115a.666.666,0,0,0-.4.612v2.14a.666.666,0,0,0,.928.612l7.293-3.115a.666.666,0,0,0,.4-.612v-2.14A.666.666,0,0,0,130.286,118.985Zm-1.033,2.256-5.961,2.546V123.1l5.961-2.546Z" transform="translate(-114.903 -107.249)" fill="#6b6e72"/><path d="M130.286,166.724a.666.666,0,0,0-.629-.057l-7.293,3.115a.666.666,0,0,0-.4.612v2.14a.666.666,0,0,0,.928.612l7.293-3.115a.666.666,0,0,0,.4-.612v-2.14A.666.666,0,0,0,130.286,166.724Zm-1.033,2.256-5.961,2.546v-.692l5.961-2.546Z" transform="translate(-114.903 -150.319)" fill="#6b6e72"/><path d="M129.918,216.684a.666.666,0,0,0-.666.666v6.713l-3,2.186-2.964-1.982V220.9l3.474-1.484a.666.666,0,1,0-.523-1.225l-3.878,1.656a.666.666,0,0,0-.4.612v4.158a.666.666,0,0,0,.3.554l3.646,2.438a.666.666,0,0,0,.763-.016l3.646-2.659a.666.666,0,0,0,.274-.538V217.35A.666.666,0,0,0,129.918,216.684Z" transform="translate(-114.902 -195.04)" fill="#6b6e72"/></svg>