<svg xmlns="http://www.w3.org/2000/svg" width="26.703" height="23.47" viewBox="0 0 26.703 23.47"><path d="M8.6,15.647H22.791a.782.782,0,0,0,.752-.567L26.673,4.127a.782.782,0,0,0-.752-1H6.8L6.24.613A.782.782,0,0,0,5.476,0H.782a.782.782,0,0,0,0,1.565H4.849L7.673,14.275a2.347,2.347,0,0,0,.932,4.5H22.791a.782.782,0,0,0,0-1.565H8.605a.782.782,0,0,1,0-1.564ZM24.883,4.694,22.2,14.082H9.233L7.147,4.694Zm0,0" fill="#5fa950"/><path d="M150,362.347A2.347,2.347,0,1,0,152.347,360,2.35,2.35,0,0,0,150,362.347Zm2.347-.782a.782.782,0,1,1-.782.782A.783.783,0,0,1,152.347,361.565Zm0,0" transform="translate(-142.177 -341.224)" fill="#5fa950"/><path d="M362,362.347A2.347,2.347,0,1,0,364.347,360,2.35,2.35,0,0,0,362,362.347Zm2.347-.782a.782.782,0,1,1-.782.782A.783.783,0,0,1,364.347,361.565Zm0,0" transform="translate(-343.12 -341.224)" fill="#5fa950"/></svg>