<svg id="Ebene_1" data-name="Ebene 1" xmlns="http://www.w3.org/2000/svg" viewBox="0 0 283.46 283.46"><defs><style>.cls-1{fill:#fff;}.cls-2{fill:#1f2345;}</style></defs><title>unternehmen</title><circle id="Ellipse_445-2" data-name="Ellipse 445-2" class="cls-1" cx="141.73" cy="141.73" r="141.73"/><path id="Icon_awesome-city" data-name="Icon awesome-city" class="cls-2" d="M199.17,128.3H172.31V95.13a4.74,4.74,0,0,0-4.74-4.74H139.14a4.74,4.74,0,0,0-4.74,4.74h0v14.22H121.76V93.55a3.15,3.15,0,0,0-3.16-3.16h-3.16a3.16,3.16,0,0,0-3.16,3.16h0v15.8H99.64V93.55a3.15,3.15,0,0,0-3.15-3.16H93.32a3.15,3.15,0,0,0-3.15,3.16v15.8h-7.9a4.74,4.74,0,0,0-4.74,4.73h0v71.09a6.32,6.32,0,0,0,6.32,6.32H197.59a6.32,6.32,0,0,0,6.32-6.32h0V133a4.74,4.74,0,0,0-4.74-4.74ZM102.8,170.16a2.37,2.37,0,0,1-2.37,2.37H92.54a2.37,2.37,0,0,1-2.37-2.37v-7.89a2.37,2.37,0,0,1,2.37-2.37h7.89a2.37,2.37,0,0,1,2.37,2.37Zm0-18.95a2.38,2.38,0,0,1-2.37,2.37H92.54a2.38,2.38,0,0,1-2.37-2.37V143.3a2.37,2.37,0,0,1,2.37-2.36h7.89a2.37,2.37,0,0,1,2.37,2.36Zm0-19a2.37,2.37,0,0,1-2.36,2.37h-7.9a2.37,2.37,0,0,1-2.37-2.37h0v-7.9A2.38,2.38,0,0,1,92.54,122h7.89a2.38,2.38,0,0,1,2.37,2.37h0Zm25.28,37.91a2.37,2.37,0,0,1-2.37,2.37h-7.9a2.37,2.37,0,0,1-2.37-2.37h0v-7.89a2.37,2.37,0,0,1,2.37-2.37h7.9a2.37,2.37,0,0,1,2.37,2.37Zm0-18.95a2.38,2.38,0,0,1-2.37,2.37h-7.9a2.38,2.38,0,0,1-2.37-2.37V143.3a2.37,2.37,0,0,1,2.37-2.36h7.9a2.37,2.37,0,0,1,2.37,2.36h0Zm0-19a2.37,2.37,0,0,1-2.37,2.37h-7.9a2.37,2.37,0,0,1-2.37-2.37h0v-7.9a2.38,2.38,0,0,1,2.37-2.37h7.9a2.38,2.38,0,0,1,2.37,2.37Zm31.59,19a2.37,2.37,0,0,1-2.37,2.37h-7.89a2.37,2.37,0,0,1-2.37-2.37V143.3a2.37,2.37,0,0,1,2.37-2.36h7.89a2.35,2.35,0,0,1,2.37,2.36h0Zm0-19a2.37,2.37,0,0,1-2.37,2.37h-7.89a2.37,2.37,0,0,1-2.37-2.37v-7.9a2.38,2.38,0,0,1,2.37-2.37h7.89a2.38,2.38,0,0,1,2.37,2.37Zm0-19a2.37,2.37,0,0,1-2.36,2.37h-7.9A2.37,2.37,0,0,1,147,113.3v-7.9a2.37,2.37,0,0,1,2.37-2.37h7.89a2.37,2.37,0,0,1,2.37,2.37Zm31.6,56.87a2.37,2.37,0,0,1-2.37,2.37H181a2.37,2.37,0,0,1-2.37-2.37v-7.89A2.37,2.37,0,0,1,181,159.9h7.9a2.37,2.37,0,0,1,2.37,2.37h0Zm0-18.95a2.38,2.38,0,0,1-2.37,2.37H181a2.38,2.38,0,0,1-2.37-2.37h0V143.3a2.37,2.37,0,0,1,2.37-2.36h7.9a2.35,2.35,0,0,1,2.37,2.36h0Z"/></svg>