<svg id="Ebene_1" data-name="Ebene 1" xmlns="http://www.w3.org/2000/svg" viewBox="0 0 283.46 283.46"><defs><style>.cls-1{fill:#fff;}.cls-2{fill:#1f2345;}</style></defs><title>zeitraum</title><path id="Pfad_2461-2" data-name="Pfad 2461-2" class="cls-1" d="M141.73,0A141.73,141.73,0,1,1,0,141.73,141.73,141.73,0,0,1,141.73,0Z"/><path id="Icon_awesome-calendar-alt" data-name="Icon awesome-calendar-alt" class="cls-2" d="M85.19,193.08a12,12,0,0,0,12,11.95h87.69a12,12,0,0,0,11.95-11.95V125.32H85.19Zm79.71-48.83a3,3,0,0,1,3-3h10a3,3,0,0,1,3,3v10a3,3,0,0,1-3,3h-10a3,3,0,0,1-3-3Zm0,31.89a3,3,0,0,1,3-3h10a3,3,0,0,1,3,3v10a3,3,0,0,1-3,3h-10a3,3,0,0,1-3-3ZM133,144.25a3,3,0,0,1,3-3h10a3,3,0,0,1,3,3v10a3,3,0,0,1-3,3H136a3,3,0,0,1-3-3Zm0,31.89a3,3,0,0,1,3-3h10a3,3,0,0,1,3,3v10a3,3,0,0,1-3,3H136a3,3,0,0,1-3-3Zm-31.88-31.89a3,3,0,0,1,3-3h10a3,3,0,0,1,3,3v10a3,3,0,0,1-3,3h-10a3,3,0,0,1-3-3Zm0,31.89a3,3,0,0,1,3-3h10a3,3,0,0,1,3,3v10a3,3,0,0,1-3,3h-10a3,3,0,0,1-3-3Zm83.7-82.7h-12v-12a4,4,0,0,0-4-4h-8a4,4,0,0,0-4,4v12H125v-12a4,4,0,0,0-4-4h-8a4,4,0,0,0-4,4v12h-12a12,12,0,0,0-12,12v12H196.78v-12a12,12,0,0,0-11.95-12Z"/></svg>